M48
INCH,TZ
T1C0.016
T2C0.024
T3C0.040
T4C0.126
%
G90
G05
T1
X75984Y-18504
X75984Y-20472
X77087Y-18957
X77087Y-20551
X77087Y-22598
X77087Y-23622
X77109Y-25136
X77933Y-19843
X78504Y-24803
X78701Y-17382
X78740Y-18504
X78891Y-22386
X78898Y-23386
X79331Y-26929
X79331Y-28898
X80551Y-25433
X80709Y-23819
X81260Y-25354
X82402Y-17087
X82441Y-13386
X82835Y-20394
X83071Y-20866
X83071Y-25591
X83228Y-12835
X83386Y-20079
X83386Y-31339
X83465Y-13386
X83465Y-13937
X83465Y-14488
X83465Y-15039
X83465Y-16850
X83465Y-17402
X83858Y-22047
X84016Y-21654
X84173Y-13386
X84173Y-13937
X84173Y-14488
X84173Y-15039
X84173Y-15591
X84173Y-16850
X84173Y-17402
X84173Y-17953
X84409Y-12835
X84843Y-27559
X84882Y-18701
X85091Y-23286
X85709Y-23110
X85787Y-24606
X85827Y-11811
X86024Y-17244
X86024Y-22756
X86063Y-18110
X86378Y-31339
X86496Y-24685
X86614Y-26181
X86614Y-27559
X87402Y-26772
X87402Y-27559
X87598Y-19331
X87598Y-20709
X87756Y-26378
X88346Y-18701
X88740Y-23031
X88740Y-24724
X88976Y-22047
X89291Y-16693
X90157Y-28346
X90728Y-21969
X90728Y-22894
X91358Y-21378
T2
X76575Y-16929
X78543Y-16358
X80089Y-26388
X80669Y-16339
X84843Y-26575
X85846Y-26575
X85846Y-27657
T3
X74803Y-14636
X74803Y-15636
X74803Y-16636
X74803Y-17636
X74803Y-20136
X74803Y-21136
X74803Y-22136
X74803Y-23136
X74803Y-24136
X74803Y-25136
X74803Y-27636
X74803Y-28636
X82891Y-32233
X83891Y-32333
X84891Y-32233
X85891Y-32333
X86891Y-32233
X87681Y-11811
X87891Y-32333
X88681Y-11811
X92520Y-16142
X92520Y-17142
X92520Y-18142
X92520Y-19142
X92520Y-24136
X92520Y-25136
X92520Y-26136
X92520Y-27136
T4
X74803Y-11811
X74803Y-31496
X92520Y-11811
X92520Y-31496
T0
M30
