G04 #@! TF.FileFunction,Legend,Top*
%FSLAX46Y46*%
G04 Gerber Fmt 4.6, Leading zero omitted, Abs format (unit mm)*
G04 Created by KiCad (PCBNEW 4.0.6-e0-6349~53~ubuntu16.04.1) date Thu May 25 23:31:25 2017*
%MOMM*%
%LPD*%
G01*
G04 APERTURE LIST*
%ADD10C,0.050000*%
%ADD11C,0.200000*%
%ADD12C,0.500000*%
%ADD13C,0.250000*%
%ADD14C,0.150000*%
%ADD15C,0.300000*%
%ADD16C,0.160000*%
G04 APERTURE END LIST*
D10*
D11*
X228500000Y-59300000D02*
X228500000Y-61100000D01*
X228500000Y-63700000D02*
X228500000Y-65500000D01*
D12*
X208750000Y-61000000D02*
G75*
G03X208750000Y-61000000I-250000J0D01*
G01*
D11*
X195538096Y-33369048D02*
X195433334Y-33316667D01*
X195380953Y-33264286D01*
X195328572Y-33159524D01*
X195328572Y-33107143D01*
X195380953Y-33002381D01*
X195433334Y-32950000D01*
X195538096Y-32897619D01*
X195747619Y-32897619D01*
X195852381Y-32950000D01*
X195904762Y-33002381D01*
X195957143Y-33107143D01*
X195957143Y-33159524D01*
X195904762Y-33264286D01*
X195852381Y-33316667D01*
X195747619Y-33369048D01*
X195538096Y-33369048D01*
X195433334Y-33421429D01*
X195380953Y-33473810D01*
X195328572Y-33578571D01*
X195328572Y-33788095D01*
X195380953Y-33892857D01*
X195433334Y-33945238D01*
X195538096Y-33997619D01*
X195747619Y-33997619D01*
X195852381Y-33945238D01*
X195904762Y-33892857D01*
X195957143Y-33788095D01*
X195957143Y-33578571D01*
X195904762Y-33473810D01*
X195852381Y-33421429D01*
X195747619Y-33369048D01*
X196428572Y-33892857D02*
X196480953Y-33945238D01*
X196428572Y-33997619D01*
X196376191Y-33945238D01*
X196428572Y-33892857D01*
X196428572Y-33997619D01*
X196900001Y-33002381D02*
X196952382Y-32950000D01*
X197057144Y-32897619D01*
X197319048Y-32897619D01*
X197423810Y-32950000D01*
X197476191Y-33002381D01*
X197528572Y-33107143D01*
X197528572Y-33211905D01*
X197476191Y-33369048D01*
X196847620Y-33997619D01*
X197528572Y-33997619D01*
X198209525Y-32897619D02*
X198314286Y-32897619D01*
X198419048Y-32950000D01*
X198471429Y-33002381D01*
X198523810Y-33107143D01*
X198576191Y-33316667D01*
X198576191Y-33578571D01*
X198523810Y-33788095D01*
X198471429Y-33892857D01*
X198419048Y-33945238D01*
X198314286Y-33997619D01*
X198209525Y-33997619D01*
X198104763Y-33945238D01*
X198052382Y-33892857D01*
X198000001Y-33788095D01*
X197947620Y-33578571D01*
X197947620Y-33316667D01*
X198000001Y-33107143D01*
X198052382Y-33002381D01*
X198104763Y-32950000D01*
X198209525Y-32897619D01*
X199623810Y-33997619D02*
X198995239Y-33997619D01*
X199309525Y-33997619D02*
X199309525Y-32897619D01*
X199204763Y-33054762D01*
X199100001Y-33159524D01*
X198995239Y-33211905D01*
X200566667Y-32897619D02*
X200357144Y-32897619D01*
X200252382Y-32950000D01*
X200200001Y-33002381D01*
X200095239Y-33159524D01*
X200042858Y-33369048D01*
X200042858Y-33788095D01*
X200095239Y-33892857D01*
X200147620Y-33945238D01*
X200252382Y-33997619D01*
X200461905Y-33997619D01*
X200566667Y-33945238D01*
X200619048Y-33892857D01*
X200671429Y-33788095D01*
X200671429Y-33526190D01*
X200619048Y-33421429D01*
X200566667Y-33369048D01*
X200461905Y-33316667D01*
X200252382Y-33316667D01*
X200147620Y-33369048D01*
X200095239Y-33421429D01*
X200042858Y-33526190D01*
X199242858Y-77342857D02*
X199928572Y-77342857D01*
X199585715Y-78542857D02*
X199585715Y-77342857D01*
X200328572Y-78542857D02*
X200328572Y-77742857D01*
X200328572Y-77342857D02*
X200271429Y-77400000D01*
X200328572Y-77457143D01*
X200385715Y-77400000D01*
X200328572Y-77342857D01*
X200328572Y-77457143D01*
X200785716Y-77342857D02*
X201585716Y-77342857D01*
X200785716Y-78542857D01*
X201585716Y-78542857D01*
X202500001Y-78485714D02*
X202385715Y-78542857D01*
X202157144Y-78542857D01*
X202042858Y-78485714D01*
X201985715Y-78371429D01*
X201985715Y-77914286D01*
X202042858Y-77800000D01*
X202157144Y-77742857D01*
X202385715Y-77742857D01*
X202500001Y-77800000D01*
X202557144Y-77914286D01*
X202557144Y-78028571D01*
X201985715Y-78142857D01*
X203585715Y-78542857D02*
X203585715Y-77342857D01*
X203585715Y-78485714D02*
X203471429Y-78542857D01*
X203242858Y-78542857D01*
X203128572Y-78485714D01*
X203071429Y-78428571D01*
X203014286Y-78314286D01*
X203014286Y-77971429D01*
X203071429Y-77857143D01*
X203128572Y-77800000D01*
X203242858Y-77742857D01*
X203471429Y-77742857D01*
X203585715Y-77800000D01*
X196242858Y-79742857D02*
X196700001Y-79742857D01*
X196414286Y-79342857D02*
X196414286Y-80371429D01*
X196471429Y-80485714D01*
X196585715Y-80542857D01*
X196700001Y-80542857D01*
X196985715Y-79742857D02*
X197614286Y-79742857D01*
X196985715Y-80542857D01*
X197614286Y-80542857D01*
X198814286Y-79971429D02*
X198757144Y-79914286D01*
X198642858Y-79857143D01*
X198528572Y-79857143D01*
X198414286Y-79914286D01*
X198357144Y-79971429D01*
X198300001Y-80085714D01*
X198300001Y-80200000D01*
X198357144Y-80314286D01*
X198414286Y-80371429D01*
X198528572Y-80428571D01*
X198642858Y-80428571D01*
X198757144Y-80371429D01*
X198814286Y-80314286D01*
X198814286Y-79857143D02*
X198814286Y-80314286D01*
X198871429Y-80371429D01*
X198928572Y-80371429D01*
X199042858Y-80314286D01*
X199100001Y-80200000D01*
X199100001Y-79914286D01*
X198985715Y-79742857D01*
X198814286Y-79628571D01*
X198585715Y-79571429D01*
X198357144Y-79628571D01*
X198185715Y-79742857D01*
X198071429Y-79914286D01*
X198014286Y-80142857D01*
X198071429Y-80371429D01*
X198185715Y-80542857D01*
X198357144Y-80657143D01*
X198585715Y-80714286D01*
X198814286Y-80657143D01*
X198985715Y-80542857D01*
X199442858Y-79742857D02*
X199900001Y-79742857D01*
X199614286Y-79342857D02*
X199614286Y-80371429D01*
X199671429Y-80485714D01*
X199785715Y-80542857D01*
X199900001Y-80542857D01*
X200300000Y-80542857D02*
X200300000Y-79742857D01*
X200300000Y-79342857D02*
X200242857Y-79400000D01*
X200300000Y-79457143D01*
X200357143Y-79400000D01*
X200300000Y-79342857D01*
X200300000Y-79457143D01*
X200757144Y-79742857D02*
X201385715Y-79742857D01*
X200757144Y-80542857D01*
X201385715Y-80542857D01*
X202300001Y-80485714D02*
X202185715Y-80542857D01*
X201957144Y-80542857D01*
X201842858Y-80485714D01*
X201785715Y-80371429D01*
X201785715Y-79914286D01*
X201842858Y-79800000D01*
X201957144Y-79742857D01*
X202185715Y-79742857D01*
X202300001Y-79800000D01*
X202357144Y-79914286D01*
X202357144Y-80028571D01*
X201785715Y-80142857D01*
X203385715Y-80542857D02*
X203385715Y-79342857D01*
X203385715Y-80485714D02*
X203271429Y-80542857D01*
X203042858Y-80542857D01*
X202928572Y-80485714D01*
X202871429Y-80428571D01*
X202814286Y-80314286D01*
X202814286Y-79971429D01*
X202871429Y-79857143D01*
X202928572Y-79800000D01*
X203042858Y-79742857D01*
X203271429Y-79742857D01*
X203385715Y-79800000D01*
X203957143Y-80428571D02*
X204014286Y-80485714D01*
X203957143Y-80542857D01*
X203900000Y-80485714D01*
X203957143Y-80428571D01*
X203957143Y-80542857D01*
X204528572Y-80542857D02*
X204528572Y-79742857D01*
X204528572Y-79857143D02*
X204585715Y-79800000D01*
X204700001Y-79742857D01*
X204871429Y-79742857D01*
X204985715Y-79800000D01*
X205042858Y-79914286D01*
X205042858Y-80542857D01*
X205042858Y-79914286D02*
X205100001Y-79800000D01*
X205214287Y-79742857D01*
X205385715Y-79742857D01*
X205500001Y-79800000D01*
X205557144Y-79914286D01*
X205557144Y-80542857D01*
X206585715Y-80485714D02*
X206471429Y-80542857D01*
X206242858Y-80542857D01*
X206128572Y-80485714D01*
X206071429Y-80371429D01*
X206071429Y-79914286D01*
X206128572Y-79800000D01*
X206242858Y-79742857D01*
X206471429Y-79742857D01*
X206585715Y-79800000D01*
X206642858Y-79914286D01*
X206642858Y-80028571D01*
X206071429Y-80142857D01*
D13*
X195357143Y-28928571D02*
X195357143Y-27428571D01*
X196214286Y-28928571D02*
X195571429Y-28071429D01*
X196214286Y-27428571D02*
X195357143Y-28285714D01*
X197500000Y-28928571D02*
X197500000Y-28142857D01*
X197428571Y-28000000D01*
X197285714Y-27928571D01*
X197000000Y-27928571D01*
X196857143Y-28000000D01*
X197500000Y-28857143D02*
X197357143Y-28928571D01*
X197000000Y-28928571D01*
X196857143Y-28857143D01*
X196785714Y-28714286D01*
X196785714Y-28571429D01*
X196857143Y-28428571D01*
X197000000Y-28357143D01*
X197357143Y-28357143D01*
X197500000Y-28285714D01*
X198214286Y-28928571D02*
X198214286Y-27928571D01*
X198214286Y-28214286D02*
X198285714Y-28071429D01*
X198357143Y-28000000D01*
X198500000Y-27928571D01*
X198642857Y-27928571D01*
X199071428Y-28857143D02*
X199214285Y-28928571D01*
X199500000Y-28928571D01*
X199642857Y-28857143D01*
X199714285Y-28714286D01*
X199714285Y-28642857D01*
X199642857Y-28500000D01*
X199500000Y-28428571D01*
X199285714Y-28428571D01*
X199142857Y-28357143D01*
X199071428Y-28214286D01*
X199071428Y-28142857D01*
X199142857Y-28000000D01*
X199285714Y-27928571D01*
X199500000Y-27928571D01*
X199642857Y-28000000D01*
X201000000Y-28928571D02*
X201000000Y-28142857D01*
X200928571Y-28000000D01*
X200785714Y-27928571D01*
X200500000Y-27928571D01*
X200357143Y-28000000D01*
X201000000Y-28857143D02*
X200857143Y-28928571D01*
X200500000Y-28928571D01*
X200357143Y-28857143D01*
X200285714Y-28714286D01*
X200285714Y-28571429D01*
X200357143Y-28428571D01*
X200500000Y-28357143D01*
X200857143Y-28357143D01*
X201000000Y-28285714D01*
X201714286Y-28928571D02*
X201714286Y-27928571D01*
X201714286Y-28071429D02*
X201785714Y-28000000D01*
X201928572Y-27928571D01*
X202142857Y-27928571D01*
X202285714Y-28000000D01*
X202357143Y-28142857D01*
X202357143Y-28928571D01*
X202357143Y-28142857D02*
X202428572Y-28000000D01*
X202571429Y-27928571D01*
X202785714Y-27928571D01*
X202928572Y-28000000D01*
X203000000Y-28142857D01*
X203000000Y-28928571D01*
X203714286Y-28785714D02*
X203785714Y-28857143D01*
X203714286Y-28928571D01*
X203642857Y-28857143D01*
X203714286Y-28785714D01*
X203714286Y-28928571D01*
X203714286Y-28000000D02*
X203785714Y-28071429D01*
X203714286Y-28142857D01*
X203642857Y-28071429D01*
X203714286Y-28000000D01*
X203714286Y-28142857D01*
X195285714Y-31357143D02*
X195428571Y-31428571D01*
X195714286Y-31428571D01*
X195857143Y-31357143D01*
X195928571Y-31214286D01*
X195928571Y-31142857D01*
X195857143Y-31000000D01*
X195714286Y-30928571D01*
X195500000Y-30928571D01*
X195357143Y-30857143D01*
X195285714Y-30714286D01*
X195285714Y-30642857D01*
X195357143Y-30500000D01*
X195500000Y-30428571D01*
X195714286Y-30428571D01*
X195857143Y-30500000D01*
X196357143Y-30428571D02*
X196928572Y-30428571D01*
X196571429Y-29928571D02*
X196571429Y-31214286D01*
X196642857Y-31357143D01*
X196785715Y-31428571D01*
X196928572Y-31428571D01*
X198000000Y-31357143D02*
X197857143Y-31428571D01*
X197571429Y-31428571D01*
X197428572Y-31357143D01*
X197357143Y-31214286D01*
X197357143Y-30642857D01*
X197428572Y-30500000D01*
X197571429Y-30428571D01*
X197857143Y-30428571D01*
X198000000Y-30500000D01*
X198071429Y-30642857D01*
X198071429Y-30785714D01*
X197357143Y-30928571D01*
X198714286Y-30428571D02*
X198714286Y-31928571D01*
X198714286Y-30500000D02*
X198857143Y-30428571D01*
X199142857Y-30428571D01*
X199285714Y-30500000D01*
X199357143Y-30571429D01*
X199428572Y-30714286D01*
X199428572Y-31142857D01*
X199357143Y-31285714D01*
X199285714Y-31357143D01*
X199142857Y-31428571D01*
X198857143Y-31428571D01*
X198714286Y-31357143D01*
X200071429Y-30428571D02*
X200071429Y-31928571D01*
X200071429Y-30500000D02*
X200214286Y-30428571D01*
X200500000Y-30428571D01*
X200642857Y-30500000D01*
X200714286Y-30571429D01*
X200785715Y-30714286D01*
X200785715Y-31142857D01*
X200714286Y-31285714D01*
X200642857Y-31357143D01*
X200500000Y-31428571D01*
X200214286Y-31428571D01*
X200071429Y-31357143D01*
X202000000Y-31357143D02*
X201857143Y-31428571D01*
X201571429Y-31428571D01*
X201428572Y-31357143D01*
X201357143Y-31214286D01*
X201357143Y-30642857D01*
X201428572Y-30500000D01*
X201571429Y-30428571D01*
X201857143Y-30428571D01*
X202000000Y-30500000D01*
X202071429Y-30642857D01*
X202071429Y-30785714D01*
X201357143Y-30928571D01*
X202714286Y-31428571D02*
X202714286Y-30428571D01*
X202714286Y-30714286D02*
X202785714Y-30571429D01*
X202857143Y-30500000D01*
X203000000Y-30428571D01*
X203142857Y-30428571D01*
X204500000Y-31285714D02*
X204428571Y-31357143D01*
X204214285Y-31428571D01*
X204071428Y-31428571D01*
X203857143Y-31357143D01*
X203714285Y-31214286D01*
X203642857Y-31071429D01*
X203571428Y-30785714D01*
X203571428Y-30571429D01*
X203642857Y-30285714D01*
X203714285Y-30142857D01*
X203857143Y-30000000D01*
X204071428Y-29928571D01*
X204214285Y-29928571D01*
X204428571Y-30000000D01*
X204500000Y-30071429D01*
X205357143Y-31428571D02*
X205214285Y-31357143D01*
X205142857Y-31285714D01*
X205071428Y-31142857D01*
X205071428Y-30714286D01*
X205142857Y-30571429D01*
X205214285Y-30500000D01*
X205357143Y-30428571D01*
X205571428Y-30428571D01*
X205714285Y-30500000D01*
X205785714Y-30571429D01*
X205857143Y-30714286D01*
X205857143Y-31142857D01*
X205785714Y-31285714D01*
X205714285Y-31357143D01*
X205571428Y-31428571D01*
X205357143Y-31428571D01*
X206500000Y-30428571D02*
X206500000Y-31428571D01*
X206500000Y-30571429D02*
X206571428Y-30500000D01*
X206714286Y-30428571D01*
X206928571Y-30428571D01*
X207071428Y-30500000D01*
X207142857Y-30642857D01*
X207142857Y-31428571D01*
D14*
X208685000Y-68475040D02*
X209085000Y-68475040D01*
X209085000Y-68475040D02*
X209085000Y-67675040D01*
X207285000Y-67675040D02*
X207285000Y-68475040D01*
X207285000Y-68475040D02*
X207685000Y-68475040D01*
X199249960Y-70349760D02*
X199249960Y-69949760D01*
X199249960Y-69949760D02*
X198449960Y-69949760D01*
X198449960Y-71749760D02*
X199249960Y-71749760D01*
X199249960Y-71749760D02*
X199249960Y-71349760D01*
X197550240Y-42900040D02*
X197950240Y-42900040D01*
X197950240Y-42900040D02*
X197950240Y-42100040D01*
X196150240Y-42100040D02*
X196150240Y-42900040D01*
X196150240Y-42900040D02*
X196550240Y-42900040D01*
X203250240Y-42900040D02*
X203650240Y-42900040D01*
X203650240Y-42900040D02*
X203650240Y-42100040D01*
X201850240Y-42100040D02*
X201850240Y-42900040D01*
X201850240Y-42900040D02*
X202250240Y-42900040D01*
X211800000Y-38200000D02*
X211800000Y-42400000D01*
X211800000Y-42400000D02*
X208400000Y-42400000D01*
X208400000Y-42400000D02*
X208400000Y-38200000D01*
X208400000Y-38200000D02*
X211800000Y-38200000D01*
X227976000Y-49590000D02*
X227976000Y-48890000D01*
X229176000Y-48890000D02*
X229176000Y-49590000D01*
X229176000Y-53450000D02*
X229176000Y-54150000D01*
X227976000Y-54150000D02*
X227976000Y-53450000D01*
X224700000Y-40600000D02*
X224700000Y-39900000D01*
X225900000Y-39900000D02*
X225900000Y-40600000D01*
X226550500Y-69338000D02*
X226550500Y-70038000D01*
X225350500Y-70038000D02*
X225350500Y-69338000D01*
X215900000Y-64400000D02*
X215900000Y-65100000D01*
X214700000Y-65100000D02*
X214700000Y-64400000D01*
X215400000Y-45200000D02*
X216100000Y-45200000D01*
X216100000Y-46400000D02*
X215400000Y-46400000D01*
X202155000Y-57530000D02*
X202855000Y-57530000D01*
X202855000Y-58730000D02*
X202155000Y-58730000D01*
X202155000Y-54990000D02*
X202855000Y-54990000D01*
X202855000Y-56190000D02*
X202155000Y-56190000D01*
X202155000Y-60070000D02*
X202855000Y-60070000D01*
X202855000Y-61270000D02*
X202155000Y-61270000D01*
X202155000Y-53085000D02*
X202855000Y-53085000D01*
X202855000Y-54285000D02*
X202155000Y-54285000D01*
X209700000Y-36500000D02*
X210400000Y-36500000D01*
X210400000Y-37700000D02*
X209700000Y-37700000D01*
X213300000Y-40800000D02*
X214000000Y-40800000D01*
X214000000Y-42000000D02*
X213300000Y-42000000D01*
X228050980Y-59448000D02*
X225350980Y-59448000D01*
X228050980Y-60948000D02*
X225350980Y-60948000D01*
X226550980Y-60048000D02*
X226550980Y-60298000D01*
X226550980Y-60298000D02*
X226700980Y-60148000D01*
X226800980Y-60548000D02*
X226800980Y-59848000D01*
X226450980Y-60198000D02*
X226100980Y-60198000D01*
X226800980Y-60198000D02*
X226450980Y-60548000D01*
X226450980Y-60548000D02*
X226450980Y-59848000D01*
X226450980Y-59848000D02*
X226800980Y-60198000D01*
X228050980Y-63838000D02*
X225350980Y-63838000D01*
X228050980Y-65338000D02*
X225350980Y-65338000D01*
X226550980Y-64438000D02*
X226550980Y-64688000D01*
X226550980Y-64688000D02*
X226700980Y-64538000D01*
X226800980Y-64938000D02*
X226800980Y-64238000D01*
X226450980Y-64588000D02*
X226100980Y-64588000D01*
X226800980Y-64588000D02*
X226450980Y-64938000D01*
X226450980Y-64938000D02*
X226450980Y-64238000D01*
X226450980Y-64238000D02*
X226800980Y-64588000D01*
X214650000Y-31750000D02*
X214650000Y-31500000D01*
X213900000Y-31750000D02*
X214650000Y-31750000D01*
X211150000Y-31750000D02*
X211900000Y-31750000D01*
X211150000Y-31500000D02*
X211150000Y-31750000D01*
X211150000Y-28250000D02*
X211150000Y-28500000D01*
X214650000Y-28250000D02*
X214650000Y-28500000D01*
X211150000Y-28250000D02*
X214650000Y-28250000D01*
X209325000Y-60175000D02*
X210000000Y-60175000D01*
X209325000Y-49825000D02*
X210000000Y-49825000D01*
X219675000Y-49825000D02*
X219000000Y-49825000D01*
X219675000Y-60175000D02*
X219000000Y-60175000D01*
X209325000Y-60175000D02*
X209325000Y-59500000D01*
X219675000Y-60175000D02*
X219675000Y-59500000D01*
X219675000Y-49825000D02*
X219675000Y-50500000D01*
X209325000Y-49825000D02*
X209325000Y-50500000D01*
X210000000Y-60175000D02*
X210000000Y-61450000D01*
X198961000Y-62321000D02*
X198961000Y-60289000D01*
X198961000Y-60289000D02*
X197691000Y-60289000D01*
X197691000Y-60289000D02*
X197691000Y-62321000D01*
X197691000Y-62321000D02*
X198961000Y-62321000D01*
X196929000Y-53304000D02*
X198961000Y-53304000D01*
X198961000Y-53304000D02*
X198961000Y-52034000D01*
X198961000Y-52034000D02*
X196929000Y-52034000D01*
X196929000Y-52034000D02*
X196929000Y-53304000D01*
X198961000Y-57241000D02*
X198961000Y-55209000D01*
X198961000Y-55209000D02*
X197691000Y-55209000D01*
X197691000Y-55209000D02*
X197691000Y-57241000D01*
X197691000Y-57241000D02*
X198961000Y-57241000D01*
X198961000Y-59781000D02*
X198961000Y-57749000D01*
X198961000Y-57749000D02*
X197691000Y-57749000D01*
X197691000Y-57749000D02*
X197691000Y-59781000D01*
X197691000Y-59781000D02*
X198961000Y-59781000D01*
X210059400Y-77555000D02*
X210059400Y-79028200D01*
X210389600Y-77555000D02*
X210389600Y-79688600D01*
X210694400Y-77555000D02*
X210694400Y-79637800D01*
X211024600Y-77555000D02*
X211024600Y-79028200D01*
D15*
X211431000Y-77555000D02*
X211431000Y-78317000D01*
X209653000Y-77555000D02*
X209653000Y-78317000D01*
X210224500Y-77555000D02*
X210224500Y-79460000D01*
X210859500Y-77555000D02*
X210859500Y-79460000D01*
X211177000Y-77555000D02*
X211177000Y-78825000D01*
X209907000Y-77555000D02*
X209907000Y-78825000D01*
X210542000Y-80095000D02*
X210542000Y-77555000D01*
X211812000Y-77555000D02*
X210542000Y-80095000D01*
X209272000Y-77555000D02*
X211812000Y-77555000D01*
X210542000Y-80095000D02*
X209272000Y-77555000D01*
D14*
X188730000Y-52415000D02*
X188730000Y-65115000D01*
X188730000Y-65115000D02*
X191270000Y-65115000D01*
X191270000Y-65115000D02*
X191270000Y-52415000D01*
X188450000Y-49595000D02*
X188450000Y-51145000D01*
X188730000Y-52415000D02*
X191270000Y-52415000D01*
X191550000Y-51145000D02*
X191550000Y-49595000D01*
X191550000Y-49595000D02*
X188450000Y-49595000D01*
X233730000Y-47350000D02*
X233730000Y-39730000D01*
X236270000Y-47350000D02*
X236270000Y-39730000D01*
X236550000Y-50170000D02*
X236550000Y-48620000D01*
X233730000Y-39730000D02*
X236270000Y-39730000D01*
X236270000Y-47350000D02*
X233730000Y-47350000D01*
X233450000Y-48620000D02*
X233450000Y-50170000D01*
X233450000Y-50170000D02*
X236550000Y-50170000D01*
X233730000Y-67655000D02*
X233730000Y-60035000D01*
X236270000Y-67655000D02*
X236270000Y-60035000D01*
X236550000Y-70475000D02*
X236550000Y-68925000D01*
X233730000Y-60035000D02*
X236270000Y-60035000D01*
X236270000Y-67655000D02*
X233730000Y-67655000D01*
X233450000Y-68925000D02*
X233450000Y-70475000D01*
X233450000Y-70475000D02*
X236550000Y-70475000D01*
X191270000Y-38445000D02*
X191270000Y-46065000D01*
X188730000Y-38445000D02*
X188730000Y-46065000D01*
X188450000Y-35625000D02*
X188450000Y-37175000D01*
X191270000Y-46065000D02*
X188730000Y-46065000D01*
X188730000Y-38445000D02*
X191270000Y-38445000D01*
X191550000Y-37175000D02*
X191550000Y-35625000D01*
X191550000Y-35625000D02*
X188450000Y-35625000D01*
X226800000Y-28450000D02*
X225250000Y-28450000D01*
X221440000Y-28730000D02*
X223980000Y-28730000D01*
X223980000Y-28730000D02*
X223980000Y-31270000D01*
X225250000Y-31550000D02*
X226800000Y-31550000D01*
X226800000Y-31550000D02*
X226800000Y-28450000D01*
X223980000Y-31270000D02*
X221440000Y-31270000D01*
X221440000Y-31270000D02*
X221440000Y-28730000D01*
X188450000Y-68645000D02*
X188450000Y-70195000D01*
X188730000Y-74005000D02*
X188730000Y-71465000D01*
X188730000Y-71465000D02*
X191270000Y-71465000D01*
X191550000Y-70195000D02*
X191550000Y-68645000D01*
X191550000Y-68645000D02*
X188450000Y-68645000D01*
X191270000Y-71465000D02*
X191270000Y-74005000D01*
X191270000Y-74005000D02*
X188730000Y-74005000D01*
X226711000Y-48740000D02*
X226711000Y-49740000D01*
X225361000Y-49740000D02*
X225361000Y-48740000D01*
X225361000Y-54300000D02*
X225361000Y-53300000D01*
X226711000Y-53300000D02*
X226711000Y-54300000D01*
X228550000Y-41675000D02*
X227550000Y-41675000D01*
X227550000Y-40325000D02*
X228550000Y-40325000D01*
X229200500Y-69613000D02*
X228200500Y-69613000D01*
X228200500Y-68263000D02*
X229200500Y-68263000D01*
X197650000Y-40175000D02*
X196650000Y-40175000D01*
X196650000Y-38825000D02*
X197650000Y-38825000D01*
X203350000Y-40175000D02*
X202350000Y-40175000D01*
X202350000Y-38825000D02*
X203350000Y-38825000D01*
X198300000Y-46175000D02*
X197300000Y-46175000D01*
X197300000Y-44825000D02*
X198300000Y-44825000D01*
X201500000Y-44825000D02*
X202500000Y-44825000D01*
X202500000Y-46175000D02*
X201500000Y-46175000D01*
X206525000Y-40450000D02*
X206525000Y-39450000D01*
X207875000Y-39450000D02*
X207875000Y-40450000D01*
X208860000Y-71485000D02*
X208860000Y-72485000D01*
X207510000Y-72485000D02*
X207510000Y-71485000D01*
X211217000Y-71485000D02*
X211217000Y-72485000D01*
X209867000Y-72485000D02*
X209867000Y-71485000D01*
X198050000Y-72725000D02*
X199050000Y-72725000D01*
X199050000Y-74075000D02*
X198050000Y-74075000D01*
X198050000Y-67725000D02*
X199050000Y-67725000D01*
X199050000Y-69075000D02*
X198050000Y-69075000D01*
X228750000Y-58850389D02*
X227750000Y-58850389D01*
X227750000Y-57500389D02*
X228750000Y-57500389D01*
X217487000Y-75025000D02*
X217487000Y-74025000D01*
X218837000Y-74025000D02*
X218837000Y-75025000D01*
X220027000Y-75025000D02*
X220027000Y-74025000D01*
X221377000Y-74025000D02*
X221377000Y-75025000D01*
X228750000Y-63263000D02*
X227750000Y-63263000D01*
X227750000Y-61913000D02*
X228750000Y-61913000D01*
D16*
X206847619Y-65761905D02*
X206847619Y-64961905D01*
X207038095Y-64961905D01*
X207152381Y-65000000D01*
X207228572Y-65076190D01*
X207266667Y-65152381D01*
X207304762Y-65304762D01*
X207304762Y-65419048D01*
X207266667Y-65571429D01*
X207228572Y-65647619D01*
X207152381Y-65723810D01*
X207038095Y-65761905D01*
X206847619Y-65761905D01*
X208066667Y-65761905D02*
X207609524Y-65761905D01*
X207838095Y-65761905D02*
X207838095Y-64961905D01*
X207761905Y-65076190D01*
X207685714Y-65152381D01*
X207609524Y-65190476D01*
X208561905Y-64961905D02*
X208638096Y-64961905D01*
X208714286Y-65000000D01*
X208752381Y-65038095D01*
X208790477Y-65114286D01*
X208828572Y-65266667D01*
X208828572Y-65457143D01*
X208790477Y-65609524D01*
X208752381Y-65685714D01*
X208714286Y-65723810D01*
X208638096Y-65761905D01*
X208561905Y-65761905D01*
X208485715Y-65723810D01*
X208447619Y-65685714D01*
X208409524Y-65609524D01*
X208371429Y-65457143D01*
X208371429Y-65266667D01*
X208409524Y-65114286D01*
X208447619Y-65038095D01*
X208485715Y-65000000D01*
X208561905Y-64961905D01*
X209590477Y-65761905D02*
X209133334Y-65761905D01*
X209361905Y-65761905D02*
X209361905Y-64961905D01*
X209285715Y-65076190D01*
X209209524Y-65152381D01*
X209133334Y-65190476D01*
X201211905Y-70088095D02*
X201135714Y-70050000D01*
X201059524Y-69973810D01*
X200945238Y-69859524D01*
X200869047Y-69821429D01*
X200792857Y-69821429D01*
X200830952Y-70011905D02*
X200754762Y-69973810D01*
X200678571Y-69897619D01*
X200640476Y-69745238D01*
X200640476Y-69478571D01*
X200678571Y-69326190D01*
X200754762Y-69250000D01*
X200830952Y-69211905D01*
X200983333Y-69211905D01*
X201059524Y-69250000D01*
X201135714Y-69326190D01*
X201173809Y-69478571D01*
X201173809Y-69745238D01*
X201135714Y-69897619D01*
X201059524Y-69973810D01*
X200983333Y-70011905D01*
X200830952Y-70011905D01*
X201935714Y-70011905D02*
X201478571Y-70011905D01*
X201707142Y-70011905D02*
X201707142Y-69211905D01*
X201630952Y-69326190D01*
X201554761Y-69402381D01*
X201478571Y-69440476D01*
X202430952Y-69211905D02*
X202507143Y-69211905D01*
X202583333Y-69250000D01*
X202621428Y-69288095D01*
X202659524Y-69364286D01*
X202697619Y-69516667D01*
X202697619Y-69707143D01*
X202659524Y-69859524D01*
X202621428Y-69935714D01*
X202583333Y-69973810D01*
X202507143Y-70011905D01*
X202430952Y-70011905D01*
X202354762Y-69973810D01*
X202316666Y-69935714D01*
X202278571Y-69859524D01*
X202240476Y-69707143D01*
X202240476Y-69516667D01*
X202278571Y-69364286D01*
X202316666Y-69288095D01*
X202354762Y-69250000D01*
X202430952Y-69211905D01*
X202964286Y-69211905D02*
X203459524Y-69211905D01*
X203192857Y-69516667D01*
X203307143Y-69516667D01*
X203383333Y-69554762D01*
X203421429Y-69592857D01*
X203459524Y-69669048D01*
X203459524Y-69859524D01*
X203421429Y-69935714D01*
X203383333Y-69973810D01*
X203307143Y-70011905D01*
X203078571Y-70011905D01*
X203002381Y-69973810D01*
X202964286Y-69935714D01*
X193161905Y-41838095D02*
X193085714Y-41800000D01*
X193009524Y-41723810D01*
X192895238Y-41609524D01*
X192819047Y-41571429D01*
X192742857Y-41571429D01*
X192780952Y-41761905D02*
X192704762Y-41723810D01*
X192628571Y-41647619D01*
X192590476Y-41495238D01*
X192590476Y-41228571D01*
X192628571Y-41076190D01*
X192704762Y-41000000D01*
X192780952Y-40961905D01*
X192933333Y-40961905D01*
X193009524Y-41000000D01*
X193085714Y-41076190D01*
X193123809Y-41228571D01*
X193123809Y-41495238D01*
X193085714Y-41647619D01*
X193009524Y-41723810D01*
X192933333Y-41761905D01*
X192780952Y-41761905D01*
X193885714Y-41761905D02*
X193428571Y-41761905D01*
X193657142Y-41761905D02*
X193657142Y-40961905D01*
X193580952Y-41076190D01*
X193504761Y-41152381D01*
X193428571Y-41190476D01*
X194380952Y-40961905D02*
X194457143Y-40961905D01*
X194533333Y-41000000D01*
X194571428Y-41038095D01*
X194609524Y-41114286D01*
X194647619Y-41266667D01*
X194647619Y-41457143D01*
X194609524Y-41609524D01*
X194571428Y-41685714D01*
X194533333Y-41723810D01*
X194457143Y-41761905D01*
X194380952Y-41761905D01*
X194304762Y-41723810D01*
X194266666Y-41685714D01*
X194228571Y-41609524D01*
X194190476Y-41457143D01*
X194190476Y-41266667D01*
X194228571Y-41114286D01*
X194266666Y-41038095D01*
X194304762Y-41000000D01*
X194380952Y-40961905D01*
X195409524Y-41761905D02*
X194952381Y-41761905D01*
X195180952Y-41761905D02*
X195180952Y-40961905D01*
X195104762Y-41076190D01*
X195028571Y-41152381D01*
X194952381Y-41190476D01*
X199161905Y-43438095D02*
X199085714Y-43400000D01*
X199009524Y-43323810D01*
X198895238Y-43209524D01*
X198819047Y-43171429D01*
X198742857Y-43171429D01*
X198780952Y-43361905D02*
X198704762Y-43323810D01*
X198628571Y-43247619D01*
X198590476Y-43095238D01*
X198590476Y-42828571D01*
X198628571Y-42676190D01*
X198704762Y-42600000D01*
X198780952Y-42561905D01*
X198933333Y-42561905D01*
X199009524Y-42600000D01*
X199085714Y-42676190D01*
X199123809Y-42828571D01*
X199123809Y-43095238D01*
X199085714Y-43247619D01*
X199009524Y-43323810D01*
X198933333Y-43361905D01*
X198780952Y-43361905D01*
X199885714Y-43361905D02*
X199428571Y-43361905D01*
X199657142Y-43361905D02*
X199657142Y-42561905D01*
X199580952Y-42676190D01*
X199504761Y-42752381D01*
X199428571Y-42790476D01*
X200380952Y-42561905D02*
X200457143Y-42561905D01*
X200533333Y-42600000D01*
X200571428Y-42638095D01*
X200609524Y-42714286D01*
X200647619Y-42866667D01*
X200647619Y-43057143D01*
X200609524Y-43209524D01*
X200571428Y-43285714D01*
X200533333Y-43323810D01*
X200457143Y-43361905D01*
X200380952Y-43361905D01*
X200304762Y-43323810D01*
X200266666Y-43285714D01*
X200228571Y-43209524D01*
X200190476Y-43057143D01*
X200190476Y-42866667D01*
X200228571Y-42714286D01*
X200266666Y-42638095D01*
X200304762Y-42600000D01*
X200380952Y-42561905D01*
X200952381Y-42638095D02*
X200990476Y-42600000D01*
X201066667Y-42561905D01*
X201257143Y-42561905D01*
X201333333Y-42600000D01*
X201371429Y-42638095D01*
X201409524Y-42714286D01*
X201409524Y-42790476D01*
X201371429Y-42904762D01*
X200914286Y-43361905D01*
X201409524Y-43361905D01*
X205840476Y-42811905D02*
X206373809Y-43611905D01*
X206373809Y-42811905D02*
X205840476Y-43611905D01*
X207097619Y-43611905D02*
X206640476Y-43611905D01*
X206869047Y-43611905D02*
X206869047Y-42811905D01*
X206792857Y-42926190D01*
X206716666Y-43002381D01*
X206640476Y-43040476D01*
X207592857Y-42811905D02*
X207669048Y-42811905D01*
X207745238Y-42850000D01*
X207783333Y-42888095D01*
X207821429Y-42964286D01*
X207859524Y-43116667D01*
X207859524Y-43307143D01*
X207821429Y-43459524D01*
X207783333Y-43535714D01*
X207745238Y-43573810D01*
X207669048Y-43611905D01*
X207592857Y-43611905D01*
X207516667Y-43573810D01*
X207478571Y-43535714D01*
X207440476Y-43459524D01*
X207402381Y-43307143D01*
X207402381Y-43116667D01*
X207440476Y-42964286D01*
X207478571Y-42888095D01*
X207516667Y-42850000D01*
X207592857Y-42811905D01*
X208621429Y-43611905D02*
X208164286Y-43611905D01*
X208392857Y-43611905D02*
X208392857Y-42811905D01*
X208316667Y-42926190D01*
X208240476Y-43002381D01*
X208164286Y-43040476D01*
X230485714Y-50135238D02*
X230523810Y-50173333D01*
X230561905Y-50287619D01*
X230561905Y-50363809D01*
X230523810Y-50478095D01*
X230447619Y-50554286D01*
X230371429Y-50592381D01*
X230219048Y-50630476D01*
X230104762Y-50630476D01*
X229952381Y-50592381D01*
X229876190Y-50554286D01*
X229800000Y-50478095D01*
X229761905Y-50363809D01*
X229761905Y-50287619D01*
X229800000Y-50173333D01*
X229838095Y-50135238D01*
X230561905Y-49373333D02*
X230561905Y-49830476D01*
X230561905Y-49601905D02*
X229761905Y-49601905D01*
X229876190Y-49678095D01*
X229952381Y-49754286D01*
X229990476Y-49830476D01*
X229761905Y-48878095D02*
X229761905Y-48801904D01*
X229800000Y-48725714D01*
X229838095Y-48687619D01*
X229914286Y-48649523D01*
X230066667Y-48611428D01*
X230257143Y-48611428D01*
X230409524Y-48649523D01*
X230485714Y-48687619D01*
X230523810Y-48725714D01*
X230561905Y-48801904D01*
X230561905Y-48878095D01*
X230523810Y-48954285D01*
X230485714Y-48992381D01*
X230409524Y-49030476D01*
X230257143Y-49068571D01*
X230066667Y-49068571D01*
X229914286Y-49030476D01*
X229838095Y-48992381D01*
X229800000Y-48954285D01*
X229761905Y-48878095D01*
X230561905Y-47849523D02*
X230561905Y-48306666D01*
X230561905Y-48078095D02*
X229761905Y-48078095D01*
X229876190Y-48154285D01*
X229952381Y-48230476D01*
X229990476Y-48306666D01*
X230485714Y-54695238D02*
X230523810Y-54733333D01*
X230561905Y-54847619D01*
X230561905Y-54923809D01*
X230523810Y-55038095D01*
X230447619Y-55114286D01*
X230371429Y-55152381D01*
X230219048Y-55190476D01*
X230104762Y-55190476D01*
X229952381Y-55152381D01*
X229876190Y-55114286D01*
X229800000Y-55038095D01*
X229761905Y-54923809D01*
X229761905Y-54847619D01*
X229800000Y-54733333D01*
X229838095Y-54695238D01*
X230561905Y-53933333D02*
X230561905Y-54390476D01*
X230561905Y-54161905D02*
X229761905Y-54161905D01*
X229876190Y-54238095D01*
X229952381Y-54314286D01*
X229990476Y-54390476D01*
X229761905Y-53438095D02*
X229761905Y-53361904D01*
X229800000Y-53285714D01*
X229838095Y-53247619D01*
X229914286Y-53209523D01*
X230066667Y-53171428D01*
X230257143Y-53171428D01*
X230409524Y-53209523D01*
X230485714Y-53247619D01*
X230523810Y-53285714D01*
X230561905Y-53361904D01*
X230561905Y-53438095D01*
X230523810Y-53514285D01*
X230485714Y-53552381D01*
X230409524Y-53590476D01*
X230257143Y-53628571D01*
X230066667Y-53628571D01*
X229914286Y-53590476D01*
X229838095Y-53552381D01*
X229800000Y-53514285D01*
X229761905Y-53438095D01*
X229838095Y-52866666D02*
X229800000Y-52828571D01*
X229761905Y-52752380D01*
X229761905Y-52561904D01*
X229800000Y-52485714D01*
X229838095Y-52447618D01*
X229914286Y-52409523D01*
X229990476Y-52409523D01*
X230104762Y-52447618D01*
X230561905Y-52904761D01*
X230561905Y-52409523D01*
X223885714Y-40995238D02*
X223923810Y-41033333D01*
X223961905Y-41147619D01*
X223961905Y-41223809D01*
X223923810Y-41338095D01*
X223847619Y-41414286D01*
X223771429Y-41452381D01*
X223619048Y-41490476D01*
X223504762Y-41490476D01*
X223352381Y-41452381D01*
X223276190Y-41414286D01*
X223200000Y-41338095D01*
X223161905Y-41223809D01*
X223161905Y-41147619D01*
X223200000Y-41033333D01*
X223238095Y-40995238D01*
X223961905Y-40233333D02*
X223961905Y-40690476D01*
X223961905Y-40461905D02*
X223161905Y-40461905D01*
X223276190Y-40538095D01*
X223352381Y-40614286D01*
X223390476Y-40690476D01*
X223161905Y-39738095D02*
X223161905Y-39661904D01*
X223200000Y-39585714D01*
X223238095Y-39547619D01*
X223314286Y-39509523D01*
X223466667Y-39471428D01*
X223657143Y-39471428D01*
X223809524Y-39509523D01*
X223885714Y-39547619D01*
X223923810Y-39585714D01*
X223961905Y-39661904D01*
X223961905Y-39738095D01*
X223923810Y-39814285D01*
X223885714Y-39852381D01*
X223809524Y-39890476D01*
X223657143Y-39928571D01*
X223466667Y-39928571D01*
X223314286Y-39890476D01*
X223238095Y-39852381D01*
X223200000Y-39814285D01*
X223161905Y-39738095D01*
X223161905Y-39204761D02*
X223161905Y-38709523D01*
X223466667Y-38976190D01*
X223466667Y-38861904D01*
X223504762Y-38785714D01*
X223542857Y-38747618D01*
X223619048Y-38709523D01*
X223809524Y-38709523D01*
X223885714Y-38747618D01*
X223923810Y-38785714D01*
X223961905Y-38861904D01*
X223961905Y-39090476D01*
X223923810Y-39166666D01*
X223885714Y-39204761D01*
X224736214Y-70583238D02*
X224774310Y-70621333D01*
X224812405Y-70735619D01*
X224812405Y-70811809D01*
X224774310Y-70926095D01*
X224698119Y-71002286D01*
X224621929Y-71040381D01*
X224469548Y-71078476D01*
X224355262Y-71078476D01*
X224202881Y-71040381D01*
X224126690Y-71002286D01*
X224050500Y-70926095D01*
X224012405Y-70811809D01*
X224012405Y-70735619D01*
X224050500Y-70621333D01*
X224088595Y-70583238D01*
X224812405Y-69821333D02*
X224812405Y-70278476D01*
X224812405Y-70049905D02*
X224012405Y-70049905D01*
X224126690Y-70126095D01*
X224202881Y-70202286D01*
X224240976Y-70278476D01*
X224012405Y-69326095D02*
X224012405Y-69249904D01*
X224050500Y-69173714D01*
X224088595Y-69135619D01*
X224164786Y-69097523D01*
X224317167Y-69059428D01*
X224507643Y-69059428D01*
X224660024Y-69097523D01*
X224736214Y-69135619D01*
X224774310Y-69173714D01*
X224812405Y-69249904D01*
X224812405Y-69326095D01*
X224774310Y-69402285D01*
X224736214Y-69440381D01*
X224660024Y-69478476D01*
X224507643Y-69516571D01*
X224317167Y-69516571D01*
X224164786Y-69478476D01*
X224088595Y-69440381D01*
X224050500Y-69402285D01*
X224012405Y-69326095D01*
X224279071Y-68373714D02*
X224812405Y-68373714D01*
X223974310Y-68564190D02*
X224545738Y-68754666D01*
X224545738Y-68259428D01*
X217285714Y-65645238D02*
X217323810Y-65683333D01*
X217361905Y-65797619D01*
X217361905Y-65873809D01*
X217323810Y-65988095D01*
X217247619Y-66064286D01*
X217171429Y-66102381D01*
X217019048Y-66140476D01*
X216904762Y-66140476D01*
X216752381Y-66102381D01*
X216676190Y-66064286D01*
X216600000Y-65988095D01*
X216561905Y-65873809D01*
X216561905Y-65797619D01*
X216600000Y-65683333D01*
X216638095Y-65645238D01*
X217361905Y-64883333D02*
X217361905Y-65340476D01*
X217361905Y-65111905D02*
X216561905Y-65111905D01*
X216676190Y-65188095D01*
X216752381Y-65264286D01*
X216790476Y-65340476D01*
X216561905Y-64388095D02*
X216561905Y-64311904D01*
X216600000Y-64235714D01*
X216638095Y-64197619D01*
X216714286Y-64159523D01*
X216866667Y-64121428D01*
X217057143Y-64121428D01*
X217209524Y-64159523D01*
X217285714Y-64197619D01*
X217323810Y-64235714D01*
X217361905Y-64311904D01*
X217361905Y-64388095D01*
X217323810Y-64464285D01*
X217285714Y-64502381D01*
X217209524Y-64540476D01*
X217057143Y-64578571D01*
X216866667Y-64578571D01*
X216714286Y-64540476D01*
X216638095Y-64502381D01*
X216600000Y-64464285D01*
X216561905Y-64388095D01*
X216561905Y-63397618D02*
X216561905Y-63778571D01*
X216942857Y-63816666D01*
X216904762Y-63778571D01*
X216866667Y-63702380D01*
X216866667Y-63511904D01*
X216904762Y-63435714D01*
X216942857Y-63397618D01*
X217019048Y-63359523D01*
X217209524Y-63359523D01*
X217285714Y-63397618D01*
X217323810Y-63435714D01*
X217361905Y-63511904D01*
X217361905Y-63702380D01*
X217323810Y-63778571D01*
X217285714Y-63816666D01*
X215304762Y-44485714D02*
X215266667Y-44523810D01*
X215152381Y-44561905D01*
X215076191Y-44561905D01*
X214961905Y-44523810D01*
X214885714Y-44447619D01*
X214847619Y-44371429D01*
X214809524Y-44219048D01*
X214809524Y-44104762D01*
X214847619Y-43952381D01*
X214885714Y-43876190D01*
X214961905Y-43800000D01*
X215076191Y-43761905D01*
X215152381Y-43761905D01*
X215266667Y-43800000D01*
X215304762Y-43838095D01*
X216066667Y-44561905D02*
X215609524Y-44561905D01*
X215838095Y-44561905D02*
X215838095Y-43761905D01*
X215761905Y-43876190D01*
X215685714Y-43952381D01*
X215609524Y-43990476D01*
X216561905Y-43761905D02*
X216638096Y-43761905D01*
X216714286Y-43800000D01*
X216752381Y-43838095D01*
X216790477Y-43914286D01*
X216828572Y-44066667D01*
X216828572Y-44257143D01*
X216790477Y-44409524D01*
X216752381Y-44485714D01*
X216714286Y-44523810D01*
X216638096Y-44561905D01*
X216561905Y-44561905D01*
X216485715Y-44523810D01*
X216447619Y-44485714D01*
X216409524Y-44409524D01*
X216371429Y-44257143D01*
X216371429Y-44066667D01*
X216409524Y-43914286D01*
X216447619Y-43838095D01*
X216485715Y-43800000D01*
X216561905Y-43761905D01*
X217514286Y-43761905D02*
X217361905Y-43761905D01*
X217285715Y-43800000D01*
X217247620Y-43838095D01*
X217171429Y-43952381D01*
X217133334Y-44104762D01*
X217133334Y-44409524D01*
X217171429Y-44485714D01*
X217209524Y-44523810D01*
X217285715Y-44561905D01*
X217438096Y-44561905D01*
X217514286Y-44523810D01*
X217552382Y-44485714D01*
X217590477Y-44409524D01*
X217590477Y-44219048D01*
X217552382Y-44142857D01*
X217514286Y-44104762D01*
X217438096Y-44066667D01*
X217285715Y-44066667D01*
X217209524Y-44104762D01*
X217171429Y-44142857D01*
X217133334Y-44219048D01*
X204804762Y-58485714D02*
X204766667Y-58523810D01*
X204652381Y-58561905D01*
X204576191Y-58561905D01*
X204461905Y-58523810D01*
X204385714Y-58447619D01*
X204347619Y-58371429D01*
X204309524Y-58219048D01*
X204309524Y-58104762D01*
X204347619Y-57952381D01*
X204385714Y-57876190D01*
X204461905Y-57800000D01*
X204576191Y-57761905D01*
X204652381Y-57761905D01*
X204766667Y-57800000D01*
X204804762Y-57838095D01*
X205566667Y-58561905D02*
X205109524Y-58561905D01*
X205338095Y-58561905D02*
X205338095Y-57761905D01*
X205261905Y-57876190D01*
X205185714Y-57952381D01*
X205109524Y-57990476D01*
X206061905Y-57761905D02*
X206138096Y-57761905D01*
X206214286Y-57800000D01*
X206252381Y-57838095D01*
X206290477Y-57914286D01*
X206328572Y-58066667D01*
X206328572Y-58257143D01*
X206290477Y-58409524D01*
X206252381Y-58485714D01*
X206214286Y-58523810D01*
X206138096Y-58561905D01*
X206061905Y-58561905D01*
X205985715Y-58523810D01*
X205947619Y-58485714D01*
X205909524Y-58409524D01*
X205871429Y-58257143D01*
X205871429Y-58066667D01*
X205909524Y-57914286D01*
X205947619Y-57838095D01*
X205985715Y-57800000D01*
X206061905Y-57761905D01*
X206595239Y-57761905D02*
X207128572Y-57761905D01*
X206785715Y-58561905D01*
X204804762Y-55885714D02*
X204766667Y-55923810D01*
X204652381Y-55961905D01*
X204576191Y-55961905D01*
X204461905Y-55923810D01*
X204385714Y-55847619D01*
X204347619Y-55771429D01*
X204309524Y-55619048D01*
X204309524Y-55504762D01*
X204347619Y-55352381D01*
X204385714Y-55276190D01*
X204461905Y-55200000D01*
X204576191Y-55161905D01*
X204652381Y-55161905D01*
X204766667Y-55200000D01*
X204804762Y-55238095D01*
X205566667Y-55961905D02*
X205109524Y-55961905D01*
X205338095Y-55961905D02*
X205338095Y-55161905D01*
X205261905Y-55276190D01*
X205185714Y-55352381D01*
X205109524Y-55390476D01*
X206061905Y-55161905D02*
X206138096Y-55161905D01*
X206214286Y-55200000D01*
X206252381Y-55238095D01*
X206290477Y-55314286D01*
X206328572Y-55466667D01*
X206328572Y-55657143D01*
X206290477Y-55809524D01*
X206252381Y-55885714D01*
X206214286Y-55923810D01*
X206138096Y-55961905D01*
X206061905Y-55961905D01*
X205985715Y-55923810D01*
X205947619Y-55885714D01*
X205909524Y-55809524D01*
X205871429Y-55657143D01*
X205871429Y-55466667D01*
X205909524Y-55314286D01*
X205947619Y-55238095D01*
X205985715Y-55200000D01*
X206061905Y-55161905D01*
X206785715Y-55504762D02*
X206709524Y-55466667D01*
X206671429Y-55428571D01*
X206633334Y-55352381D01*
X206633334Y-55314286D01*
X206671429Y-55238095D01*
X206709524Y-55200000D01*
X206785715Y-55161905D01*
X206938096Y-55161905D01*
X207014286Y-55200000D01*
X207052382Y-55238095D01*
X207090477Y-55314286D01*
X207090477Y-55352381D01*
X207052382Y-55428571D01*
X207014286Y-55466667D01*
X206938096Y-55504762D01*
X206785715Y-55504762D01*
X206709524Y-55542857D01*
X206671429Y-55580952D01*
X206633334Y-55657143D01*
X206633334Y-55809524D01*
X206671429Y-55885714D01*
X206709524Y-55923810D01*
X206785715Y-55961905D01*
X206938096Y-55961905D01*
X207014286Y-55923810D01*
X207052382Y-55885714D01*
X207090477Y-55809524D01*
X207090477Y-55657143D01*
X207052382Y-55580952D01*
X207014286Y-55542857D01*
X206938096Y-55504762D01*
X203004762Y-62485714D02*
X202966667Y-62523810D01*
X202852381Y-62561905D01*
X202776191Y-62561905D01*
X202661905Y-62523810D01*
X202585714Y-62447619D01*
X202547619Y-62371429D01*
X202509524Y-62219048D01*
X202509524Y-62104762D01*
X202547619Y-61952381D01*
X202585714Y-61876190D01*
X202661905Y-61800000D01*
X202776191Y-61761905D01*
X202852381Y-61761905D01*
X202966667Y-61800000D01*
X203004762Y-61838095D01*
X203766667Y-62561905D02*
X203309524Y-62561905D01*
X203538095Y-62561905D02*
X203538095Y-61761905D01*
X203461905Y-61876190D01*
X203385714Y-61952381D01*
X203309524Y-61990476D01*
X204261905Y-61761905D02*
X204338096Y-61761905D01*
X204414286Y-61800000D01*
X204452381Y-61838095D01*
X204490477Y-61914286D01*
X204528572Y-62066667D01*
X204528572Y-62257143D01*
X204490477Y-62409524D01*
X204452381Y-62485714D01*
X204414286Y-62523810D01*
X204338096Y-62561905D01*
X204261905Y-62561905D01*
X204185715Y-62523810D01*
X204147619Y-62485714D01*
X204109524Y-62409524D01*
X204071429Y-62257143D01*
X204071429Y-62066667D01*
X204109524Y-61914286D01*
X204147619Y-61838095D01*
X204185715Y-61800000D01*
X204261905Y-61761905D01*
X204909524Y-62561905D02*
X205061905Y-62561905D01*
X205138096Y-62523810D01*
X205176191Y-62485714D01*
X205252382Y-62371429D01*
X205290477Y-62219048D01*
X205290477Y-61914286D01*
X205252382Y-61838095D01*
X205214286Y-61800000D01*
X205138096Y-61761905D01*
X204985715Y-61761905D01*
X204909524Y-61800000D01*
X204871429Y-61838095D01*
X204833334Y-61914286D01*
X204833334Y-62104762D01*
X204871429Y-62180952D01*
X204909524Y-62219048D01*
X204985715Y-62257143D01*
X205138096Y-62257143D01*
X205214286Y-62219048D01*
X205252382Y-62180952D01*
X205290477Y-62104762D01*
X202754762Y-52535714D02*
X202716667Y-52573810D01*
X202602381Y-52611905D01*
X202526191Y-52611905D01*
X202411905Y-52573810D01*
X202335714Y-52497619D01*
X202297619Y-52421429D01*
X202259524Y-52269048D01*
X202259524Y-52154762D01*
X202297619Y-52002381D01*
X202335714Y-51926190D01*
X202411905Y-51850000D01*
X202526191Y-51811905D01*
X202602381Y-51811905D01*
X202716667Y-51850000D01*
X202754762Y-51888095D01*
X203516667Y-52611905D02*
X203059524Y-52611905D01*
X203288095Y-52611905D02*
X203288095Y-51811905D01*
X203211905Y-51926190D01*
X203135714Y-52002381D01*
X203059524Y-52040476D01*
X204278572Y-52611905D02*
X203821429Y-52611905D01*
X204050000Y-52611905D02*
X204050000Y-51811905D01*
X203973810Y-51926190D01*
X203897619Y-52002381D01*
X203821429Y-52040476D01*
X204773810Y-51811905D02*
X204850001Y-51811905D01*
X204926191Y-51850000D01*
X204964286Y-51888095D01*
X205002382Y-51964286D01*
X205040477Y-52116667D01*
X205040477Y-52307143D01*
X205002382Y-52459524D01*
X204964286Y-52535714D01*
X204926191Y-52573810D01*
X204850001Y-52611905D01*
X204773810Y-52611905D01*
X204697620Y-52573810D01*
X204659524Y-52535714D01*
X204621429Y-52459524D01*
X204583334Y-52307143D01*
X204583334Y-52116667D01*
X204621429Y-51964286D01*
X204659524Y-51888095D01*
X204697620Y-51850000D01*
X204773810Y-51811905D01*
X209104762Y-35885714D02*
X209066667Y-35923810D01*
X208952381Y-35961905D01*
X208876191Y-35961905D01*
X208761905Y-35923810D01*
X208685714Y-35847619D01*
X208647619Y-35771429D01*
X208609524Y-35619048D01*
X208609524Y-35504762D01*
X208647619Y-35352381D01*
X208685714Y-35276190D01*
X208761905Y-35200000D01*
X208876191Y-35161905D01*
X208952381Y-35161905D01*
X209066667Y-35200000D01*
X209104762Y-35238095D01*
X209866667Y-35961905D02*
X209409524Y-35961905D01*
X209638095Y-35961905D02*
X209638095Y-35161905D01*
X209561905Y-35276190D01*
X209485714Y-35352381D01*
X209409524Y-35390476D01*
X210628572Y-35961905D02*
X210171429Y-35961905D01*
X210400000Y-35961905D02*
X210400000Y-35161905D01*
X210323810Y-35276190D01*
X210247619Y-35352381D01*
X210171429Y-35390476D01*
X211390477Y-35961905D02*
X210933334Y-35961905D01*
X211161905Y-35961905D02*
X211161905Y-35161905D01*
X211085715Y-35276190D01*
X211009524Y-35352381D01*
X210933334Y-35390476D01*
X215304762Y-40285714D02*
X215266667Y-40323810D01*
X215152381Y-40361905D01*
X215076191Y-40361905D01*
X214961905Y-40323810D01*
X214885714Y-40247619D01*
X214847619Y-40171429D01*
X214809524Y-40019048D01*
X214809524Y-39904762D01*
X214847619Y-39752381D01*
X214885714Y-39676190D01*
X214961905Y-39600000D01*
X215076191Y-39561905D01*
X215152381Y-39561905D01*
X215266667Y-39600000D01*
X215304762Y-39638095D01*
X216066667Y-40361905D02*
X215609524Y-40361905D01*
X215838095Y-40361905D02*
X215838095Y-39561905D01*
X215761905Y-39676190D01*
X215685714Y-39752381D01*
X215609524Y-39790476D01*
X216828572Y-40361905D02*
X216371429Y-40361905D01*
X216600000Y-40361905D02*
X216600000Y-39561905D01*
X216523810Y-39676190D01*
X216447619Y-39752381D01*
X216371429Y-39790476D01*
X217133334Y-39638095D02*
X217171429Y-39600000D01*
X217247620Y-39561905D01*
X217438096Y-39561905D01*
X217514286Y-39600000D01*
X217552382Y-39638095D01*
X217590477Y-39714286D01*
X217590477Y-39790476D01*
X217552382Y-39904762D01*
X217095239Y-40361905D01*
X217590477Y-40361905D01*
X223447619Y-62161905D02*
X223447619Y-61361905D01*
X223638095Y-61361905D01*
X223752381Y-61400000D01*
X223828572Y-61476190D01*
X223866667Y-61552381D01*
X223904762Y-61704762D01*
X223904762Y-61819048D01*
X223866667Y-61971429D01*
X223828572Y-62047619D01*
X223752381Y-62123810D01*
X223638095Y-62161905D01*
X223447619Y-62161905D01*
X224666667Y-62161905D02*
X224209524Y-62161905D01*
X224438095Y-62161905D02*
X224438095Y-61361905D01*
X224361905Y-61476190D01*
X224285714Y-61552381D01*
X224209524Y-61590476D01*
X225161905Y-61361905D02*
X225238096Y-61361905D01*
X225314286Y-61400000D01*
X225352381Y-61438095D01*
X225390477Y-61514286D01*
X225428572Y-61666667D01*
X225428572Y-61857143D01*
X225390477Y-62009524D01*
X225352381Y-62085714D01*
X225314286Y-62123810D01*
X225238096Y-62161905D01*
X225161905Y-62161905D01*
X225085715Y-62123810D01*
X225047619Y-62085714D01*
X225009524Y-62009524D01*
X224971429Y-61857143D01*
X224971429Y-61666667D01*
X225009524Y-61514286D01*
X225047619Y-61438095D01*
X225085715Y-61400000D01*
X225161905Y-61361905D01*
X225733334Y-61438095D02*
X225771429Y-61400000D01*
X225847620Y-61361905D01*
X226038096Y-61361905D01*
X226114286Y-61400000D01*
X226152382Y-61438095D01*
X226190477Y-61514286D01*
X226190477Y-61590476D01*
X226152382Y-61704762D01*
X225695239Y-62161905D01*
X226190477Y-62161905D01*
X225098599Y-66699905D02*
X225098599Y-65899905D01*
X225289075Y-65899905D01*
X225403361Y-65938000D01*
X225479552Y-66014190D01*
X225517647Y-66090381D01*
X225555742Y-66242762D01*
X225555742Y-66357048D01*
X225517647Y-66509429D01*
X225479552Y-66585619D01*
X225403361Y-66661810D01*
X225289075Y-66699905D01*
X225098599Y-66699905D01*
X226317647Y-66699905D02*
X225860504Y-66699905D01*
X226089075Y-66699905D02*
X226089075Y-65899905D01*
X226012885Y-66014190D01*
X225936694Y-66090381D01*
X225860504Y-66128476D01*
X226812885Y-65899905D02*
X226889076Y-65899905D01*
X226965266Y-65938000D01*
X227003361Y-65976095D01*
X227041457Y-66052286D01*
X227079552Y-66204667D01*
X227079552Y-66395143D01*
X227041457Y-66547524D01*
X227003361Y-66623714D01*
X226965266Y-66661810D01*
X226889076Y-66699905D01*
X226812885Y-66699905D01*
X226736695Y-66661810D01*
X226698599Y-66623714D01*
X226660504Y-66547524D01*
X226622409Y-66395143D01*
X226622409Y-66204667D01*
X226660504Y-66052286D01*
X226698599Y-65976095D01*
X226736695Y-65938000D01*
X226812885Y-65899905D01*
X227346219Y-65899905D02*
X227841457Y-65899905D01*
X227574790Y-66204667D01*
X227689076Y-66204667D01*
X227765266Y-66242762D01*
X227803362Y-66280857D01*
X227841457Y-66357048D01*
X227841457Y-66547524D01*
X227803362Y-66623714D01*
X227765266Y-66661810D01*
X227689076Y-66699905D01*
X227460504Y-66699905D01*
X227384314Y-66661810D01*
X227346219Y-66623714D01*
X215647619Y-29161905D02*
X215647619Y-28361905D01*
X215952381Y-28361905D01*
X216028572Y-28400000D01*
X216066667Y-28438095D01*
X216104762Y-28514286D01*
X216104762Y-28628571D01*
X216066667Y-28704762D01*
X216028572Y-28742857D01*
X215952381Y-28780952D01*
X215647619Y-28780952D01*
X216866667Y-29161905D02*
X216409524Y-29161905D01*
X216638095Y-29161905D02*
X216638095Y-28361905D01*
X216561905Y-28476190D01*
X216485714Y-28552381D01*
X216409524Y-28590476D01*
X217361905Y-28361905D02*
X217438096Y-28361905D01*
X217514286Y-28400000D01*
X217552381Y-28438095D01*
X217590477Y-28514286D01*
X217628572Y-28666667D01*
X217628572Y-28857143D01*
X217590477Y-29009524D01*
X217552381Y-29085714D01*
X217514286Y-29123810D01*
X217438096Y-29161905D01*
X217361905Y-29161905D01*
X217285715Y-29123810D01*
X217247619Y-29085714D01*
X217209524Y-29009524D01*
X217171429Y-28857143D01*
X217171429Y-28666667D01*
X217209524Y-28514286D01*
X217247619Y-28438095D01*
X217285715Y-28400000D01*
X217361905Y-28361905D01*
X217895239Y-28361905D02*
X218428572Y-28361905D01*
X218085715Y-29161905D01*
X207828571Y-62561905D02*
X207828571Y-63209524D01*
X207866666Y-63285714D01*
X207904762Y-63323810D01*
X207980952Y-63361905D01*
X208133333Y-63361905D01*
X208209524Y-63323810D01*
X208247619Y-63285714D01*
X208285714Y-63209524D01*
X208285714Y-62561905D01*
X209085714Y-63361905D02*
X208628571Y-63361905D01*
X208857142Y-63361905D02*
X208857142Y-62561905D01*
X208780952Y-62676190D01*
X208704761Y-62752381D01*
X208628571Y-62790476D01*
X209580952Y-62561905D02*
X209657143Y-62561905D01*
X209733333Y-62600000D01*
X209771428Y-62638095D01*
X209809524Y-62714286D01*
X209847619Y-62866667D01*
X209847619Y-63057143D01*
X209809524Y-63209524D01*
X209771428Y-63285714D01*
X209733333Y-63323810D01*
X209657143Y-63361905D01*
X209580952Y-63361905D01*
X209504762Y-63323810D01*
X209466666Y-63285714D01*
X209428571Y-63209524D01*
X209390476Y-63057143D01*
X209390476Y-62866667D01*
X209428571Y-62714286D01*
X209466666Y-62638095D01*
X209504762Y-62600000D01*
X209580952Y-62561905D01*
X210609524Y-63361905D02*
X210152381Y-63361905D01*
X210380952Y-63361905D02*
X210380952Y-62561905D01*
X210304762Y-62676190D01*
X210228571Y-62752381D01*
X210152381Y-62790476D01*
X193528571Y-61811905D02*
X193528571Y-62459524D01*
X193566666Y-62535714D01*
X193604762Y-62573810D01*
X193680952Y-62611905D01*
X193833333Y-62611905D01*
X193909524Y-62573810D01*
X193947619Y-62535714D01*
X193985714Y-62459524D01*
X193985714Y-61811905D01*
X194785714Y-62611905D02*
X194328571Y-62611905D01*
X194557142Y-62611905D02*
X194557142Y-61811905D01*
X194480952Y-61926190D01*
X194404761Y-62002381D01*
X194328571Y-62040476D01*
X195280952Y-61811905D02*
X195357143Y-61811905D01*
X195433333Y-61850000D01*
X195471428Y-61888095D01*
X195509524Y-61964286D01*
X195547619Y-62116667D01*
X195547619Y-62307143D01*
X195509524Y-62459524D01*
X195471428Y-62535714D01*
X195433333Y-62573810D01*
X195357143Y-62611905D01*
X195280952Y-62611905D01*
X195204762Y-62573810D01*
X195166666Y-62535714D01*
X195128571Y-62459524D01*
X195090476Y-62307143D01*
X195090476Y-62116667D01*
X195128571Y-61964286D01*
X195166666Y-61888095D01*
X195204762Y-61850000D01*
X195280952Y-61811905D01*
X195852381Y-61888095D02*
X195890476Y-61850000D01*
X195966667Y-61811905D01*
X196157143Y-61811905D01*
X196233333Y-61850000D01*
X196271429Y-61888095D01*
X196309524Y-61964286D01*
X196309524Y-62040476D01*
X196271429Y-62154762D01*
X195814286Y-62611905D01*
X196309524Y-62611905D01*
X193528571Y-52761905D02*
X193528571Y-53409524D01*
X193566666Y-53485714D01*
X193604762Y-53523810D01*
X193680952Y-53561905D01*
X193833333Y-53561905D01*
X193909524Y-53523810D01*
X193947619Y-53485714D01*
X193985714Y-53409524D01*
X193985714Y-52761905D01*
X194785714Y-53561905D02*
X194328571Y-53561905D01*
X194557142Y-53561905D02*
X194557142Y-52761905D01*
X194480952Y-52876190D01*
X194404761Y-52952381D01*
X194328571Y-52990476D01*
X195280952Y-52761905D02*
X195357143Y-52761905D01*
X195433333Y-52800000D01*
X195471428Y-52838095D01*
X195509524Y-52914286D01*
X195547619Y-53066667D01*
X195547619Y-53257143D01*
X195509524Y-53409524D01*
X195471428Y-53485714D01*
X195433333Y-53523810D01*
X195357143Y-53561905D01*
X195280952Y-53561905D01*
X195204762Y-53523810D01*
X195166666Y-53485714D01*
X195128571Y-53409524D01*
X195090476Y-53257143D01*
X195090476Y-53066667D01*
X195128571Y-52914286D01*
X195166666Y-52838095D01*
X195204762Y-52800000D01*
X195280952Y-52761905D01*
X195814286Y-52761905D02*
X196309524Y-52761905D01*
X196042857Y-53066667D01*
X196157143Y-53066667D01*
X196233333Y-53104762D01*
X196271429Y-53142857D01*
X196309524Y-53219048D01*
X196309524Y-53409524D01*
X196271429Y-53485714D01*
X196233333Y-53523810D01*
X196157143Y-53561905D01*
X195928571Y-53561905D01*
X195852381Y-53523810D01*
X195814286Y-53485714D01*
X193528571Y-55161905D02*
X193528571Y-55809524D01*
X193566666Y-55885714D01*
X193604762Y-55923810D01*
X193680952Y-55961905D01*
X193833333Y-55961905D01*
X193909524Y-55923810D01*
X193947619Y-55885714D01*
X193985714Y-55809524D01*
X193985714Y-55161905D01*
X194785714Y-55961905D02*
X194328571Y-55961905D01*
X194557142Y-55961905D02*
X194557142Y-55161905D01*
X194480952Y-55276190D01*
X194404761Y-55352381D01*
X194328571Y-55390476D01*
X195280952Y-55161905D02*
X195357143Y-55161905D01*
X195433333Y-55200000D01*
X195471428Y-55238095D01*
X195509524Y-55314286D01*
X195547619Y-55466667D01*
X195547619Y-55657143D01*
X195509524Y-55809524D01*
X195471428Y-55885714D01*
X195433333Y-55923810D01*
X195357143Y-55961905D01*
X195280952Y-55961905D01*
X195204762Y-55923810D01*
X195166666Y-55885714D01*
X195128571Y-55809524D01*
X195090476Y-55657143D01*
X195090476Y-55466667D01*
X195128571Y-55314286D01*
X195166666Y-55238095D01*
X195204762Y-55200000D01*
X195280952Y-55161905D01*
X196233333Y-55428571D02*
X196233333Y-55961905D01*
X196042857Y-55123810D02*
X195852381Y-55695238D01*
X196347619Y-55695238D01*
X193528571Y-58161905D02*
X193528571Y-58809524D01*
X193566666Y-58885714D01*
X193604762Y-58923810D01*
X193680952Y-58961905D01*
X193833333Y-58961905D01*
X193909524Y-58923810D01*
X193947619Y-58885714D01*
X193985714Y-58809524D01*
X193985714Y-58161905D01*
X194785714Y-58961905D02*
X194328571Y-58961905D01*
X194557142Y-58961905D02*
X194557142Y-58161905D01*
X194480952Y-58276190D01*
X194404761Y-58352381D01*
X194328571Y-58390476D01*
X195280952Y-58161905D02*
X195357143Y-58161905D01*
X195433333Y-58200000D01*
X195471428Y-58238095D01*
X195509524Y-58314286D01*
X195547619Y-58466667D01*
X195547619Y-58657143D01*
X195509524Y-58809524D01*
X195471428Y-58885714D01*
X195433333Y-58923810D01*
X195357143Y-58961905D01*
X195280952Y-58961905D01*
X195204762Y-58923810D01*
X195166666Y-58885714D01*
X195128571Y-58809524D01*
X195090476Y-58657143D01*
X195090476Y-58466667D01*
X195128571Y-58314286D01*
X195166666Y-58238095D01*
X195204762Y-58200000D01*
X195280952Y-58161905D01*
X196271429Y-58161905D02*
X195890476Y-58161905D01*
X195852381Y-58542857D01*
X195890476Y-58504762D01*
X195966667Y-58466667D01*
X196157143Y-58466667D01*
X196233333Y-58504762D01*
X196271429Y-58542857D01*
X196309524Y-58619048D01*
X196309524Y-58809524D01*
X196271429Y-58885714D01*
X196233333Y-58923810D01*
X196157143Y-58961905D01*
X195966667Y-58961905D01*
X195890476Y-58923810D01*
X195852381Y-58885714D01*
X223247619Y-79961905D02*
X223247619Y-79161905D01*
X223552381Y-79161905D01*
X223628572Y-79200000D01*
X223666667Y-79238095D01*
X223704762Y-79314286D01*
X223704762Y-79428571D01*
X223666667Y-79504762D01*
X223628572Y-79542857D01*
X223552381Y-79580952D01*
X223247619Y-79580952D01*
X224466667Y-79961905D02*
X224009524Y-79961905D01*
X224238095Y-79961905D02*
X224238095Y-79161905D01*
X224161905Y-79276190D01*
X224085714Y-79352381D01*
X224009524Y-79390476D01*
X224961905Y-79161905D02*
X225038096Y-79161905D01*
X225114286Y-79200000D01*
X225152381Y-79238095D01*
X225190477Y-79314286D01*
X225228572Y-79466667D01*
X225228572Y-79657143D01*
X225190477Y-79809524D01*
X225152381Y-79885714D01*
X225114286Y-79923810D01*
X225038096Y-79961905D01*
X224961905Y-79961905D01*
X224885715Y-79923810D01*
X224847619Y-79885714D01*
X224809524Y-79809524D01*
X224771429Y-79657143D01*
X224771429Y-79466667D01*
X224809524Y-79314286D01*
X224847619Y-79238095D01*
X224885715Y-79200000D01*
X224961905Y-79161905D01*
X225685715Y-79504762D02*
X225609524Y-79466667D01*
X225571429Y-79428571D01*
X225533334Y-79352381D01*
X225533334Y-79314286D01*
X225571429Y-79238095D01*
X225609524Y-79200000D01*
X225685715Y-79161905D01*
X225838096Y-79161905D01*
X225914286Y-79200000D01*
X225952382Y-79238095D01*
X225990477Y-79314286D01*
X225990477Y-79352381D01*
X225952382Y-79428571D01*
X225914286Y-79466667D01*
X225838096Y-79504762D01*
X225685715Y-79504762D01*
X225609524Y-79542857D01*
X225571429Y-79580952D01*
X225533334Y-79657143D01*
X225533334Y-79809524D01*
X225571429Y-79885714D01*
X225609524Y-79923810D01*
X225685715Y-79961905D01*
X225838096Y-79961905D01*
X225914286Y-79923810D01*
X225952382Y-79885714D01*
X225990477Y-79809524D01*
X225990477Y-79657143D01*
X225952382Y-79580952D01*
X225914286Y-79542857D01*
X225838096Y-79504762D01*
X215415810Y-79652381D02*
X215415810Y-78652381D01*
X216463429Y-79557143D02*
X216415810Y-79604762D01*
X216272953Y-79652381D01*
X216177715Y-79652381D01*
X216034857Y-79604762D01*
X215939619Y-79509524D01*
X215892000Y-79414286D01*
X215844381Y-79223810D01*
X215844381Y-79080952D01*
X215892000Y-78890476D01*
X215939619Y-78795238D01*
X216034857Y-78700000D01*
X216177715Y-78652381D01*
X216272953Y-78652381D01*
X216415810Y-78700000D01*
X216463429Y-78747619D01*
X216844381Y-79604762D02*
X216987238Y-79652381D01*
X217225334Y-79652381D01*
X217320572Y-79604762D01*
X217368191Y-79557143D01*
X217415810Y-79461905D01*
X217415810Y-79366667D01*
X217368191Y-79271429D01*
X217320572Y-79223810D01*
X217225334Y-79176190D01*
X217034857Y-79128571D01*
X216939619Y-79080952D01*
X216892000Y-79033333D01*
X216844381Y-78938095D01*
X216844381Y-78842857D01*
X216892000Y-78747619D01*
X216939619Y-78700000D01*
X217034857Y-78652381D01*
X217272953Y-78652381D01*
X217415810Y-78700000D01*
X217844381Y-79652381D02*
X217844381Y-78652381D01*
X218225334Y-78652381D01*
X218320572Y-78700000D01*
X218368191Y-78747619D01*
X218415810Y-78842857D01*
X218415810Y-78985714D01*
X218368191Y-79080952D01*
X218320572Y-79128571D01*
X218225334Y-79176190D01*
X217844381Y-79176190D01*
X192961905Y-65552381D02*
X192161905Y-65552381D01*
X192161905Y-65247619D01*
X192200000Y-65171428D01*
X192238095Y-65133333D01*
X192314286Y-65095238D01*
X192428571Y-65095238D01*
X192504762Y-65133333D01*
X192542857Y-65171428D01*
X192580952Y-65247619D01*
X192580952Y-65552381D01*
X192961905Y-64333333D02*
X192961905Y-64790476D01*
X192961905Y-64561905D02*
X192161905Y-64561905D01*
X192276190Y-64638095D01*
X192352381Y-64714286D01*
X192390476Y-64790476D01*
X192161905Y-63838095D02*
X192161905Y-63761904D01*
X192200000Y-63685714D01*
X192238095Y-63647619D01*
X192314286Y-63609523D01*
X192466667Y-63571428D01*
X192657143Y-63571428D01*
X192809524Y-63609523D01*
X192885714Y-63647619D01*
X192923810Y-63685714D01*
X192961905Y-63761904D01*
X192961905Y-63838095D01*
X192923810Y-63914285D01*
X192885714Y-63952381D01*
X192809524Y-63990476D01*
X192657143Y-64028571D01*
X192466667Y-64028571D01*
X192314286Y-63990476D01*
X192238095Y-63952381D01*
X192200000Y-63914285D01*
X192161905Y-63838095D01*
X192961905Y-62809523D02*
X192961905Y-63266666D01*
X192961905Y-63038095D02*
X192161905Y-63038095D01*
X192276190Y-63114285D01*
X192352381Y-63190476D01*
X192390476Y-63266666D01*
X188085238Y-48657143D02*
X188037619Y-48704762D01*
X187894762Y-48752381D01*
X187799524Y-48752381D01*
X187656666Y-48704762D01*
X187561428Y-48609524D01*
X187513809Y-48514286D01*
X187466190Y-48323810D01*
X187466190Y-48180952D01*
X187513809Y-47990476D01*
X187561428Y-47895238D01*
X187656666Y-47800000D01*
X187799524Y-47752381D01*
X187894762Y-47752381D01*
X188037619Y-47800000D01*
X188085238Y-47847619D01*
X188656666Y-48752381D02*
X188561428Y-48704762D01*
X188513809Y-48657143D01*
X188466190Y-48561905D01*
X188466190Y-48276190D01*
X188513809Y-48180952D01*
X188561428Y-48133333D01*
X188656666Y-48085714D01*
X188799524Y-48085714D01*
X188894762Y-48133333D01*
X188942381Y-48180952D01*
X188990000Y-48276190D01*
X188990000Y-48561905D01*
X188942381Y-48657143D01*
X188894762Y-48704762D01*
X188799524Y-48752381D01*
X188656666Y-48752381D01*
X189418571Y-48085714D02*
X189418571Y-48752381D01*
X189418571Y-48180952D02*
X189466190Y-48133333D01*
X189561428Y-48085714D01*
X189704286Y-48085714D01*
X189799524Y-48133333D01*
X189847143Y-48228571D01*
X189847143Y-48752381D01*
X190180476Y-48085714D02*
X190561428Y-48085714D01*
X190323333Y-47752381D02*
X190323333Y-48609524D01*
X190370952Y-48704762D01*
X190466190Y-48752381D01*
X190561428Y-48752381D01*
X190894762Y-48752381D02*
X190894762Y-48085714D01*
X190894762Y-48276190D02*
X190942381Y-48180952D01*
X190990000Y-48133333D01*
X191085238Y-48085714D01*
X191180477Y-48085714D01*
X191656667Y-48752381D02*
X191561429Y-48704762D01*
X191513810Y-48657143D01*
X191466191Y-48561905D01*
X191466191Y-48276190D01*
X191513810Y-48180952D01*
X191561429Y-48133333D01*
X191656667Y-48085714D01*
X191799525Y-48085714D01*
X191894763Y-48133333D01*
X191942382Y-48180952D01*
X191990001Y-48276190D01*
X191990001Y-48561905D01*
X191942382Y-48657143D01*
X191894763Y-48704762D01*
X191799525Y-48752381D01*
X191656667Y-48752381D01*
X192561429Y-48752381D02*
X192466191Y-48704762D01*
X192418572Y-48609524D01*
X192418572Y-47752381D01*
X232771905Y-50292381D02*
X231971905Y-50292381D01*
X231971905Y-49987619D01*
X232010000Y-49911428D01*
X232048095Y-49873333D01*
X232124286Y-49835238D01*
X232238571Y-49835238D01*
X232314762Y-49873333D01*
X232352857Y-49911428D01*
X232390952Y-49987619D01*
X232390952Y-50292381D01*
X232771905Y-49073333D02*
X232771905Y-49530476D01*
X232771905Y-49301905D02*
X231971905Y-49301905D01*
X232086190Y-49378095D01*
X232162381Y-49454286D01*
X232200476Y-49530476D01*
X231971905Y-48578095D02*
X231971905Y-48501904D01*
X232010000Y-48425714D01*
X232048095Y-48387619D01*
X232124286Y-48349523D01*
X232276667Y-48311428D01*
X232467143Y-48311428D01*
X232619524Y-48349523D01*
X232695714Y-48387619D01*
X232733810Y-48425714D01*
X232771905Y-48501904D01*
X232771905Y-48578095D01*
X232733810Y-48654285D01*
X232695714Y-48692381D01*
X232619524Y-48730476D01*
X232467143Y-48768571D01*
X232276667Y-48768571D01*
X232124286Y-48730476D01*
X232048095Y-48692381D01*
X232010000Y-48654285D01*
X231971905Y-48578095D01*
X232048095Y-48006666D02*
X232010000Y-47968571D01*
X231971905Y-47892380D01*
X231971905Y-47701904D01*
X232010000Y-47625714D01*
X232048095Y-47587618D01*
X232124286Y-47549523D01*
X232200476Y-47549523D01*
X232314762Y-47587618D01*
X232771905Y-48044761D01*
X232771905Y-47549523D01*
X232160476Y-38362381D02*
X232160476Y-37362381D01*
X232541429Y-37362381D01*
X232636667Y-37410000D01*
X232684286Y-37457619D01*
X232731905Y-37552857D01*
X232731905Y-37695714D01*
X232684286Y-37790952D01*
X232636667Y-37838571D01*
X232541429Y-37886190D01*
X232160476Y-37886190D01*
X233160476Y-38362381D02*
X233160476Y-37362381D01*
X233589048Y-38362381D02*
X233589048Y-37838571D01*
X233541429Y-37743333D01*
X233446191Y-37695714D01*
X233303333Y-37695714D01*
X233208095Y-37743333D01*
X233160476Y-37790952D01*
X234493810Y-38362381D02*
X234493810Y-37838571D01*
X234446191Y-37743333D01*
X234350953Y-37695714D01*
X234160476Y-37695714D01*
X234065238Y-37743333D01*
X234493810Y-38314762D02*
X234398572Y-38362381D01*
X234160476Y-38362381D01*
X234065238Y-38314762D01*
X234017619Y-38219524D01*
X234017619Y-38124286D01*
X234065238Y-38029048D01*
X234160476Y-37981429D01*
X234398572Y-37981429D01*
X234493810Y-37933810D01*
X234922381Y-38314762D02*
X235017619Y-38362381D01*
X235208095Y-38362381D01*
X235303334Y-38314762D01*
X235350953Y-38219524D01*
X235350953Y-38171905D01*
X235303334Y-38076667D01*
X235208095Y-38029048D01*
X235065238Y-38029048D01*
X234970000Y-37981429D01*
X234922381Y-37886190D01*
X234922381Y-37838571D01*
X234970000Y-37743333D01*
X235065238Y-37695714D01*
X235208095Y-37695714D01*
X235303334Y-37743333D01*
X236160477Y-38314762D02*
X236065239Y-38362381D01*
X235874762Y-38362381D01*
X235779524Y-38314762D01*
X235731905Y-38219524D01*
X235731905Y-37838571D01*
X235779524Y-37743333D01*
X235874762Y-37695714D01*
X236065239Y-37695714D01*
X236160477Y-37743333D01*
X236208096Y-37838571D01*
X236208096Y-37933810D01*
X235731905Y-38029048D01*
X237350953Y-38076667D02*
X237827144Y-38076667D01*
X237255715Y-38362381D02*
X237589048Y-37362381D01*
X237922382Y-38362381D01*
X232761905Y-70552381D02*
X231961905Y-70552381D01*
X231961905Y-70247619D01*
X232000000Y-70171428D01*
X232038095Y-70133333D01*
X232114286Y-70095238D01*
X232228571Y-70095238D01*
X232304762Y-70133333D01*
X232342857Y-70171428D01*
X232380952Y-70247619D01*
X232380952Y-70552381D01*
X232761905Y-69333333D02*
X232761905Y-69790476D01*
X232761905Y-69561905D02*
X231961905Y-69561905D01*
X232076190Y-69638095D01*
X232152381Y-69714286D01*
X232190476Y-69790476D01*
X231961905Y-68838095D02*
X231961905Y-68761904D01*
X232000000Y-68685714D01*
X232038095Y-68647619D01*
X232114286Y-68609523D01*
X232266667Y-68571428D01*
X232457143Y-68571428D01*
X232609524Y-68609523D01*
X232685714Y-68647619D01*
X232723810Y-68685714D01*
X232761905Y-68761904D01*
X232761905Y-68838095D01*
X232723810Y-68914285D01*
X232685714Y-68952381D01*
X232609524Y-68990476D01*
X232457143Y-69028571D01*
X232266667Y-69028571D01*
X232114286Y-68990476D01*
X232038095Y-68952381D01*
X232000000Y-68914285D01*
X231961905Y-68838095D01*
X231961905Y-68304761D02*
X231961905Y-67809523D01*
X232266667Y-68076190D01*
X232266667Y-67961904D01*
X232304762Y-67885714D01*
X232342857Y-67847618D01*
X232419048Y-67809523D01*
X232609524Y-67809523D01*
X232685714Y-67847618D01*
X232723810Y-67885714D01*
X232761905Y-67961904D01*
X232761905Y-68190476D01*
X232723810Y-68266666D01*
X232685714Y-68304761D01*
X232119047Y-58852381D02*
X232119047Y-57852381D01*
X232500000Y-57852381D01*
X232595238Y-57900000D01*
X232642857Y-57947619D01*
X232690476Y-58042857D01*
X232690476Y-58185714D01*
X232642857Y-58280952D01*
X232595238Y-58328571D01*
X232500000Y-58376190D01*
X232119047Y-58376190D01*
X233119047Y-58852381D02*
X233119047Y-57852381D01*
X233547619Y-58852381D02*
X233547619Y-58328571D01*
X233500000Y-58233333D01*
X233404762Y-58185714D01*
X233261904Y-58185714D01*
X233166666Y-58233333D01*
X233119047Y-58280952D01*
X234452381Y-58852381D02*
X234452381Y-58328571D01*
X234404762Y-58233333D01*
X234309524Y-58185714D01*
X234119047Y-58185714D01*
X234023809Y-58233333D01*
X234452381Y-58804762D02*
X234357143Y-58852381D01*
X234119047Y-58852381D01*
X234023809Y-58804762D01*
X233976190Y-58709524D01*
X233976190Y-58614286D01*
X234023809Y-58519048D01*
X234119047Y-58471429D01*
X234357143Y-58471429D01*
X234452381Y-58423810D01*
X234880952Y-58804762D02*
X234976190Y-58852381D01*
X235166666Y-58852381D01*
X235261905Y-58804762D01*
X235309524Y-58709524D01*
X235309524Y-58661905D01*
X235261905Y-58566667D01*
X235166666Y-58519048D01*
X235023809Y-58519048D01*
X234928571Y-58471429D01*
X234880952Y-58376190D01*
X234880952Y-58328571D01*
X234928571Y-58233333D01*
X235023809Y-58185714D01*
X235166666Y-58185714D01*
X235261905Y-58233333D01*
X236119048Y-58804762D02*
X236023810Y-58852381D01*
X235833333Y-58852381D01*
X235738095Y-58804762D01*
X235690476Y-58709524D01*
X235690476Y-58328571D01*
X235738095Y-58233333D01*
X235833333Y-58185714D01*
X236023810Y-58185714D01*
X236119048Y-58233333D01*
X236166667Y-58328571D01*
X236166667Y-58423810D01*
X235690476Y-58519048D01*
X237690477Y-58328571D02*
X237833334Y-58376190D01*
X237880953Y-58423810D01*
X237928572Y-58519048D01*
X237928572Y-58661905D01*
X237880953Y-58757143D01*
X237833334Y-58804762D01*
X237738096Y-58852381D01*
X237357143Y-58852381D01*
X237357143Y-57852381D01*
X237690477Y-57852381D01*
X237785715Y-57900000D01*
X237833334Y-57947619D01*
X237880953Y-58042857D01*
X237880953Y-58138095D01*
X237833334Y-58233333D01*
X237785715Y-58280952D01*
X237690477Y-58328571D01*
X237357143Y-58328571D01*
X193061905Y-46652381D02*
X192261905Y-46652381D01*
X192261905Y-46347619D01*
X192300000Y-46271428D01*
X192338095Y-46233333D01*
X192414286Y-46195238D01*
X192528571Y-46195238D01*
X192604762Y-46233333D01*
X192642857Y-46271428D01*
X192680952Y-46347619D01*
X192680952Y-46652381D01*
X193061905Y-45433333D02*
X193061905Y-45890476D01*
X193061905Y-45661905D02*
X192261905Y-45661905D01*
X192376190Y-45738095D01*
X192452381Y-45814286D01*
X192490476Y-45890476D01*
X192261905Y-44938095D02*
X192261905Y-44861904D01*
X192300000Y-44785714D01*
X192338095Y-44747619D01*
X192414286Y-44709523D01*
X192566667Y-44671428D01*
X192757143Y-44671428D01*
X192909524Y-44709523D01*
X192985714Y-44747619D01*
X193023810Y-44785714D01*
X193061905Y-44861904D01*
X193061905Y-44938095D01*
X193023810Y-45014285D01*
X192985714Y-45052381D01*
X192909524Y-45090476D01*
X192757143Y-45128571D01*
X192566667Y-45128571D01*
X192414286Y-45090476D01*
X192338095Y-45052381D01*
X192300000Y-45014285D01*
X192261905Y-44938095D01*
X192528571Y-43985714D02*
X193061905Y-43985714D01*
X192223810Y-44176190D02*
X192795238Y-44366666D01*
X192795238Y-43871428D01*
X189013810Y-34932381D02*
X189013810Y-33932381D01*
X189442381Y-34027619D02*
X189490000Y-33980000D01*
X189585238Y-33932381D01*
X189823334Y-33932381D01*
X189918572Y-33980000D01*
X189966191Y-34027619D01*
X190013810Y-34122857D01*
X190013810Y-34218095D01*
X189966191Y-34360952D01*
X189394762Y-34932381D01*
X190013810Y-34932381D01*
X191013810Y-34837143D02*
X190966191Y-34884762D01*
X190823334Y-34932381D01*
X190728096Y-34932381D01*
X190585238Y-34884762D01*
X190490000Y-34789524D01*
X190442381Y-34694286D01*
X190394762Y-34503810D01*
X190394762Y-34360952D01*
X190442381Y-34170476D01*
X190490000Y-34075238D01*
X190585238Y-33980000D01*
X190728096Y-33932381D01*
X190823334Y-33932381D01*
X190966191Y-33980000D01*
X191013810Y-34027619D01*
X227577619Y-31711905D02*
X227577619Y-30911905D01*
X227882381Y-30911905D01*
X227958572Y-30950000D01*
X227996667Y-30988095D01*
X228034762Y-31064286D01*
X228034762Y-31178571D01*
X227996667Y-31254762D01*
X227958572Y-31292857D01*
X227882381Y-31330952D01*
X227577619Y-31330952D01*
X228796667Y-31711905D02*
X228339524Y-31711905D01*
X228568095Y-31711905D02*
X228568095Y-30911905D01*
X228491905Y-31026190D01*
X228415714Y-31102381D01*
X228339524Y-31140476D01*
X229291905Y-30911905D02*
X229368096Y-30911905D01*
X229444286Y-30950000D01*
X229482381Y-30988095D01*
X229520477Y-31064286D01*
X229558572Y-31216667D01*
X229558572Y-31407143D01*
X229520477Y-31559524D01*
X229482381Y-31635714D01*
X229444286Y-31673810D01*
X229368096Y-31711905D01*
X229291905Y-31711905D01*
X229215715Y-31673810D01*
X229177619Y-31635714D01*
X229139524Y-31559524D01*
X229101429Y-31407143D01*
X229101429Y-31216667D01*
X229139524Y-31064286D01*
X229177619Y-30988095D01*
X229215715Y-30950000D01*
X229291905Y-30911905D01*
X230282382Y-30911905D02*
X229901429Y-30911905D01*
X229863334Y-31292857D01*
X229901429Y-31254762D01*
X229977620Y-31216667D01*
X230168096Y-31216667D01*
X230244286Y-31254762D01*
X230282382Y-31292857D01*
X230320477Y-31369048D01*
X230320477Y-31559524D01*
X230282382Y-31635714D01*
X230244286Y-31673810D01*
X230168096Y-31711905D01*
X229977620Y-31711905D01*
X229901429Y-31673810D01*
X229863334Y-31635714D01*
X222253809Y-33372381D02*
X222253809Y-32372381D01*
X222634762Y-32372381D01*
X222730000Y-32420000D01*
X222777619Y-32467619D01*
X222825238Y-32562857D01*
X222825238Y-32705714D01*
X222777619Y-32800952D01*
X222730000Y-32848571D01*
X222634762Y-32896190D01*
X222253809Y-32896190D01*
X223396666Y-33372381D02*
X223301428Y-33324762D01*
X223253809Y-33277143D01*
X223206190Y-33181905D01*
X223206190Y-32896190D01*
X223253809Y-32800952D01*
X223301428Y-32753333D01*
X223396666Y-32705714D01*
X223539524Y-32705714D01*
X223634762Y-32753333D01*
X223682381Y-32800952D01*
X223730000Y-32896190D01*
X223730000Y-33181905D01*
X223682381Y-33277143D01*
X223634762Y-33324762D01*
X223539524Y-33372381D01*
X223396666Y-33372381D01*
X224063333Y-32705714D02*
X224253809Y-33372381D01*
X224444286Y-32896190D01*
X224634762Y-33372381D01*
X224825238Y-32705714D01*
X225587143Y-33324762D02*
X225491905Y-33372381D01*
X225301428Y-33372381D01*
X225206190Y-33324762D01*
X225158571Y-33229524D01*
X225158571Y-32848571D01*
X225206190Y-32753333D01*
X225301428Y-32705714D01*
X225491905Y-32705714D01*
X225587143Y-32753333D01*
X225634762Y-32848571D01*
X225634762Y-32943810D01*
X225158571Y-33039048D01*
X226063333Y-33372381D02*
X226063333Y-32705714D01*
X226063333Y-32896190D02*
X226110952Y-32800952D01*
X226158571Y-32753333D01*
X226253809Y-32705714D01*
X226349048Y-32705714D01*
X193061905Y-74352381D02*
X192261905Y-74352381D01*
X192261905Y-74047619D01*
X192300000Y-73971428D01*
X192338095Y-73933333D01*
X192414286Y-73895238D01*
X192528571Y-73895238D01*
X192604762Y-73933333D01*
X192642857Y-73971428D01*
X192680952Y-74047619D01*
X192680952Y-74352381D01*
X193061905Y-73133333D02*
X193061905Y-73590476D01*
X193061905Y-73361905D02*
X192261905Y-73361905D01*
X192376190Y-73438095D01*
X192452381Y-73514286D01*
X192490476Y-73590476D01*
X192261905Y-72638095D02*
X192261905Y-72561904D01*
X192300000Y-72485714D01*
X192338095Y-72447619D01*
X192414286Y-72409523D01*
X192566667Y-72371428D01*
X192757143Y-72371428D01*
X192909524Y-72409523D01*
X192985714Y-72447619D01*
X193023810Y-72485714D01*
X193061905Y-72561904D01*
X193061905Y-72638095D01*
X193023810Y-72714285D01*
X192985714Y-72752381D01*
X192909524Y-72790476D01*
X192757143Y-72828571D01*
X192566667Y-72828571D01*
X192414286Y-72790476D01*
X192338095Y-72752381D01*
X192300000Y-72714285D01*
X192261905Y-72638095D01*
X192261905Y-71685714D02*
X192261905Y-71838095D01*
X192300000Y-71914285D01*
X192338095Y-71952380D01*
X192452381Y-72028571D01*
X192604762Y-72066666D01*
X192909524Y-72066666D01*
X192985714Y-72028571D01*
X193023810Y-71990476D01*
X193061905Y-71914285D01*
X193061905Y-71761904D01*
X193023810Y-71685714D01*
X192985714Y-71647618D01*
X192909524Y-71609523D01*
X192719048Y-71609523D01*
X192642857Y-71647618D01*
X192604762Y-71685714D01*
X192566667Y-71761904D01*
X192566667Y-71914285D01*
X192604762Y-71990476D01*
X192642857Y-72028571D01*
X192719048Y-72066666D01*
X188751905Y-67782381D02*
X188418571Y-67306190D01*
X188180476Y-67782381D02*
X188180476Y-66782381D01*
X188561429Y-66782381D01*
X188656667Y-66830000D01*
X188704286Y-66877619D01*
X188751905Y-66972857D01*
X188751905Y-67115714D01*
X188704286Y-67210952D01*
X188656667Y-67258571D01*
X188561429Y-67306190D01*
X188180476Y-67306190D01*
X189561429Y-67734762D02*
X189466191Y-67782381D01*
X189275714Y-67782381D01*
X189180476Y-67734762D01*
X189132857Y-67639524D01*
X189132857Y-67258571D01*
X189180476Y-67163333D01*
X189275714Y-67115714D01*
X189466191Y-67115714D01*
X189561429Y-67163333D01*
X189609048Y-67258571D01*
X189609048Y-67353810D01*
X189132857Y-67449048D01*
X189990000Y-67734762D02*
X190085238Y-67782381D01*
X190275714Y-67782381D01*
X190370953Y-67734762D01*
X190418572Y-67639524D01*
X190418572Y-67591905D01*
X190370953Y-67496667D01*
X190275714Y-67449048D01*
X190132857Y-67449048D01*
X190037619Y-67401429D01*
X189990000Y-67306190D01*
X189990000Y-67258571D01*
X190037619Y-67163333D01*
X190132857Y-67115714D01*
X190275714Y-67115714D01*
X190370953Y-67163333D01*
X191228096Y-67734762D02*
X191132858Y-67782381D01*
X190942381Y-67782381D01*
X190847143Y-67734762D01*
X190799524Y-67639524D01*
X190799524Y-67258571D01*
X190847143Y-67163333D01*
X190942381Y-67115714D01*
X191132858Y-67115714D01*
X191228096Y-67163333D01*
X191275715Y-67258571D01*
X191275715Y-67353810D01*
X190799524Y-67449048D01*
X191561429Y-67115714D02*
X191942381Y-67115714D01*
X191704286Y-66782381D02*
X191704286Y-67639524D01*
X191751905Y-67734762D01*
X191847143Y-67782381D01*
X191942381Y-67782381D01*
X224811905Y-50345238D02*
X224430952Y-50611905D01*
X224811905Y-50802381D02*
X224011905Y-50802381D01*
X224011905Y-50497619D01*
X224050000Y-50421428D01*
X224088095Y-50383333D01*
X224164286Y-50345238D01*
X224278571Y-50345238D01*
X224354762Y-50383333D01*
X224392857Y-50421428D01*
X224430952Y-50497619D01*
X224430952Y-50802381D01*
X224811905Y-49583333D02*
X224811905Y-50040476D01*
X224811905Y-49811905D02*
X224011905Y-49811905D01*
X224126190Y-49888095D01*
X224202381Y-49964286D01*
X224240476Y-50040476D01*
X224011905Y-49088095D02*
X224011905Y-49011904D01*
X224050000Y-48935714D01*
X224088095Y-48897619D01*
X224164286Y-48859523D01*
X224316667Y-48821428D01*
X224507143Y-48821428D01*
X224659524Y-48859523D01*
X224735714Y-48897619D01*
X224773810Y-48935714D01*
X224811905Y-49011904D01*
X224811905Y-49088095D01*
X224773810Y-49164285D01*
X224735714Y-49202381D01*
X224659524Y-49240476D01*
X224507143Y-49278571D01*
X224316667Y-49278571D01*
X224164286Y-49240476D01*
X224088095Y-49202381D01*
X224050000Y-49164285D01*
X224011905Y-49088095D01*
X224811905Y-48059523D02*
X224811905Y-48516666D01*
X224811905Y-48288095D02*
X224011905Y-48288095D01*
X224126190Y-48364285D01*
X224202381Y-48440476D01*
X224240476Y-48516666D01*
X224786905Y-54595238D02*
X224405952Y-54861905D01*
X224786905Y-55052381D02*
X223986905Y-55052381D01*
X223986905Y-54747619D01*
X224025000Y-54671428D01*
X224063095Y-54633333D01*
X224139286Y-54595238D01*
X224253571Y-54595238D01*
X224329762Y-54633333D01*
X224367857Y-54671428D01*
X224405952Y-54747619D01*
X224405952Y-55052381D01*
X224786905Y-53833333D02*
X224786905Y-54290476D01*
X224786905Y-54061905D02*
X223986905Y-54061905D01*
X224101190Y-54138095D01*
X224177381Y-54214286D01*
X224215476Y-54290476D01*
X223986905Y-53338095D02*
X223986905Y-53261904D01*
X224025000Y-53185714D01*
X224063095Y-53147619D01*
X224139286Y-53109523D01*
X224291667Y-53071428D01*
X224482143Y-53071428D01*
X224634524Y-53109523D01*
X224710714Y-53147619D01*
X224748810Y-53185714D01*
X224786905Y-53261904D01*
X224786905Y-53338095D01*
X224748810Y-53414285D01*
X224710714Y-53452381D01*
X224634524Y-53490476D01*
X224482143Y-53528571D01*
X224291667Y-53528571D01*
X224139286Y-53490476D01*
X224063095Y-53452381D01*
X224025000Y-53414285D01*
X223986905Y-53338095D01*
X224063095Y-52766666D02*
X224025000Y-52728571D01*
X223986905Y-52652380D01*
X223986905Y-52461904D01*
X224025000Y-52385714D01*
X224063095Y-52347618D01*
X224139286Y-52309523D01*
X224215476Y-52309523D01*
X224329762Y-52347618D01*
X224786905Y-52804761D01*
X224786905Y-52309523D01*
X227179762Y-39836905D02*
X226913095Y-39455952D01*
X226722619Y-39836905D02*
X226722619Y-39036905D01*
X227027381Y-39036905D01*
X227103572Y-39075000D01*
X227141667Y-39113095D01*
X227179762Y-39189286D01*
X227179762Y-39303571D01*
X227141667Y-39379762D01*
X227103572Y-39417857D01*
X227027381Y-39455952D01*
X226722619Y-39455952D01*
X227941667Y-39836905D02*
X227484524Y-39836905D01*
X227713095Y-39836905D02*
X227713095Y-39036905D01*
X227636905Y-39151190D01*
X227560714Y-39227381D01*
X227484524Y-39265476D01*
X228436905Y-39036905D02*
X228513096Y-39036905D01*
X228589286Y-39075000D01*
X228627381Y-39113095D01*
X228665477Y-39189286D01*
X228703572Y-39341667D01*
X228703572Y-39532143D01*
X228665477Y-39684524D01*
X228627381Y-39760714D01*
X228589286Y-39798810D01*
X228513096Y-39836905D01*
X228436905Y-39836905D01*
X228360715Y-39798810D01*
X228322619Y-39760714D01*
X228284524Y-39684524D01*
X228246429Y-39532143D01*
X228246429Y-39341667D01*
X228284524Y-39189286D01*
X228322619Y-39113095D01*
X228360715Y-39075000D01*
X228436905Y-39036905D01*
X228970239Y-39036905D02*
X229465477Y-39036905D01*
X229198810Y-39341667D01*
X229313096Y-39341667D01*
X229389286Y-39379762D01*
X229427382Y-39417857D01*
X229465477Y-39494048D01*
X229465477Y-39684524D01*
X229427382Y-39760714D01*
X229389286Y-39798810D01*
X229313096Y-39836905D01*
X229084524Y-39836905D01*
X229008334Y-39798810D01*
X228970239Y-39760714D01*
X228004762Y-71086905D02*
X227738095Y-70705952D01*
X227547619Y-71086905D02*
X227547619Y-70286905D01*
X227852381Y-70286905D01*
X227928572Y-70325000D01*
X227966667Y-70363095D01*
X228004762Y-70439286D01*
X228004762Y-70553571D01*
X227966667Y-70629762D01*
X227928572Y-70667857D01*
X227852381Y-70705952D01*
X227547619Y-70705952D01*
X228766667Y-71086905D02*
X228309524Y-71086905D01*
X228538095Y-71086905D02*
X228538095Y-70286905D01*
X228461905Y-70401190D01*
X228385714Y-70477381D01*
X228309524Y-70515476D01*
X229261905Y-70286905D02*
X229338096Y-70286905D01*
X229414286Y-70325000D01*
X229452381Y-70363095D01*
X229490477Y-70439286D01*
X229528572Y-70591667D01*
X229528572Y-70782143D01*
X229490477Y-70934524D01*
X229452381Y-71010714D01*
X229414286Y-71048810D01*
X229338096Y-71086905D01*
X229261905Y-71086905D01*
X229185715Y-71048810D01*
X229147619Y-71010714D01*
X229109524Y-70934524D01*
X229071429Y-70782143D01*
X229071429Y-70591667D01*
X229109524Y-70439286D01*
X229147619Y-70363095D01*
X229185715Y-70325000D01*
X229261905Y-70286905D01*
X230214286Y-70553571D02*
X230214286Y-71086905D01*
X230023810Y-70248810D02*
X229833334Y-70820238D01*
X230328572Y-70820238D01*
X196254762Y-38211905D02*
X195988095Y-37830952D01*
X195797619Y-38211905D02*
X195797619Y-37411905D01*
X196102381Y-37411905D01*
X196178572Y-37450000D01*
X196216667Y-37488095D01*
X196254762Y-37564286D01*
X196254762Y-37678571D01*
X196216667Y-37754762D01*
X196178572Y-37792857D01*
X196102381Y-37830952D01*
X195797619Y-37830952D01*
X197016667Y-38211905D02*
X196559524Y-38211905D01*
X196788095Y-38211905D02*
X196788095Y-37411905D01*
X196711905Y-37526190D01*
X196635714Y-37602381D01*
X196559524Y-37640476D01*
X197511905Y-37411905D02*
X197588096Y-37411905D01*
X197664286Y-37450000D01*
X197702381Y-37488095D01*
X197740477Y-37564286D01*
X197778572Y-37716667D01*
X197778572Y-37907143D01*
X197740477Y-38059524D01*
X197702381Y-38135714D01*
X197664286Y-38173810D01*
X197588096Y-38211905D01*
X197511905Y-38211905D01*
X197435715Y-38173810D01*
X197397619Y-38135714D01*
X197359524Y-38059524D01*
X197321429Y-37907143D01*
X197321429Y-37716667D01*
X197359524Y-37564286D01*
X197397619Y-37488095D01*
X197435715Y-37450000D01*
X197511905Y-37411905D01*
X198502382Y-37411905D02*
X198121429Y-37411905D01*
X198083334Y-37792857D01*
X198121429Y-37754762D01*
X198197620Y-37716667D01*
X198388096Y-37716667D01*
X198464286Y-37754762D01*
X198502382Y-37792857D01*
X198540477Y-37869048D01*
X198540477Y-38059524D01*
X198502382Y-38135714D01*
X198464286Y-38173810D01*
X198388096Y-38211905D01*
X198197620Y-38211905D01*
X198121429Y-38173810D01*
X198083334Y-38135714D01*
X201829762Y-38186905D02*
X201563095Y-37805952D01*
X201372619Y-38186905D02*
X201372619Y-37386905D01*
X201677381Y-37386905D01*
X201753572Y-37425000D01*
X201791667Y-37463095D01*
X201829762Y-37539286D01*
X201829762Y-37653571D01*
X201791667Y-37729762D01*
X201753572Y-37767857D01*
X201677381Y-37805952D01*
X201372619Y-37805952D01*
X202591667Y-38186905D02*
X202134524Y-38186905D01*
X202363095Y-38186905D02*
X202363095Y-37386905D01*
X202286905Y-37501190D01*
X202210714Y-37577381D01*
X202134524Y-37615476D01*
X203086905Y-37386905D02*
X203163096Y-37386905D01*
X203239286Y-37425000D01*
X203277381Y-37463095D01*
X203315477Y-37539286D01*
X203353572Y-37691667D01*
X203353572Y-37882143D01*
X203315477Y-38034524D01*
X203277381Y-38110714D01*
X203239286Y-38148810D01*
X203163096Y-38186905D01*
X203086905Y-38186905D01*
X203010715Y-38148810D01*
X202972619Y-38110714D01*
X202934524Y-38034524D01*
X202896429Y-37882143D01*
X202896429Y-37691667D01*
X202934524Y-37539286D01*
X202972619Y-37463095D01*
X203010715Y-37425000D01*
X203086905Y-37386905D01*
X204039286Y-37386905D02*
X203886905Y-37386905D01*
X203810715Y-37425000D01*
X203772620Y-37463095D01*
X203696429Y-37577381D01*
X203658334Y-37729762D01*
X203658334Y-38034524D01*
X203696429Y-38110714D01*
X203734524Y-38148810D01*
X203810715Y-38186905D01*
X203963096Y-38186905D01*
X204039286Y-38148810D01*
X204077382Y-38110714D01*
X204115477Y-38034524D01*
X204115477Y-37844048D01*
X204077382Y-37767857D01*
X204039286Y-37729762D01*
X203963096Y-37691667D01*
X203810715Y-37691667D01*
X203734524Y-37729762D01*
X203696429Y-37767857D01*
X203658334Y-37844048D01*
X196954762Y-47511905D02*
X196688095Y-47130952D01*
X196497619Y-47511905D02*
X196497619Y-46711905D01*
X196802381Y-46711905D01*
X196878572Y-46750000D01*
X196916667Y-46788095D01*
X196954762Y-46864286D01*
X196954762Y-46978571D01*
X196916667Y-47054762D01*
X196878572Y-47092857D01*
X196802381Y-47130952D01*
X196497619Y-47130952D01*
X197716667Y-47511905D02*
X197259524Y-47511905D01*
X197488095Y-47511905D02*
X197488095Y-46711905D01*
X197411905Y-46826190D01*
X197335714Y-46902381D01*
X197259524Y-46940476D01*
X198211905Y-46711905D02*
X198288096Y-46711905D01*
X198364286Y-46750000D01*
X198402381Y-46788095D01*
X198440477Y-46864286D01*
X198478572Y-47016667D01*
X198478572Y-47207143D01*
X198440477Y-47359524D01*
X198402381Y-47435714D01*
X198364286Y-47473810D01*
X198288096Y-47511905D01*
X198211905Y-47511905D01*
X198135715Y-47473810D01*
X198097619Y-47435714D01*
X198059524Y-47359524D01*
X198021429Y-47207143D01*
X198021429Y-47016667D01*
X198059524Y-46864286D01*
X198097619Y-46788095D01*
X198135715Y-46750000D01*
X198211905Y-46711905D01*
X198745239Y-46711905D02*
X199278572Y-46711905D01*
X198935715Y-47511905D01*
X201329762Y-47461905D02*
X201063095Y-47080952D01*
X200872619Y-47461905D02*
X200872619Y-46661905D01*
X201177381Y-46661905D01*
X201253572Y-46700000D01*
X201291667Y-46738095D01*
X201329762Y-46814286D01*
X201329762Y-46928571D01*
X201291667Y-47004762D01*
X201253572Y-47042857D01*
X201177381Y-47080952D01*
X200872619Y-47080952D01*
X202091667Y-47461905D02*
X201634524Y-47461905D01*
X201863095Y-47461905D02*
X201863095Y-46661905D01*
X201786905Y-46776190D01*
X201710714Y-46852381D01*
X201634524Y-46890476D01*
X202586905Y-46661905D02*
X202663096Y-46661905D01*
X202739286Y-46700000D01*
X202777381Y-46738095D01*
X202815477Y-46814286D01*
X202853572Y-46966667D01*
X202853572Y-47157143D01*
X202815477Y-47309524D01*
X202777381Y-47385714D01*
X202739286Y-47423810D01*
X202663096Y-47461905D01*
X202586905Y-47461905D01*
X202510715Y-47423810D01*
X202472619Y-47385714D01*
X202434524Y-47309524D01*
X202396429Y-47157143D01*
X202396429Y-46966667D01*
X202434524Y-46814286D01*
X202472619Y-46738095D01*
X202510715Y-46700000D01*
X202586905Y-46661905D01*
X203310715Y-47004762D02*
X203234524Y-46966667D01*
X203196429Y-46928571D01*
X203158334Y-46852381D01*
X203158334Y-46814286D01*
X203196429Y-46738095D01*
X203234524Y-46700000D01*
X203310715Y-46661905D01*
X203463096Y-46661905D01*
X203539286Y-46700000D01*
X203577382Y-46738095D01*
X203615477Y-46814286D01*
X203615477Y-46852381D01*
X203577382Y-46928571D01*
X203539286Y-46966667D01*
X203463096Y-47004762D01*
X203310715Y-47004762D01*
X203234524Y-47042857D01*
X203196429Y-47080952D01*
X203158334Y-47157143D01*
X203158334Y-47309524D01*
X203196429Y-47385714D01*
X203234524Y-47423810D01*
X203310715Y-47461905D01*
X203463096Y-47461905D01*
X203539286Y-47423810D01*
X203577382Y-47385714D01*
X203615477Y-47309524D01*
X203615477Y-47157143D01*
X203577382Y-47080952D01*
X203539286Y-47042857D01*
X203463096Y-47004762D01*
X206001905Y-40305238D02*
X205620952Y-40571905D01*
X206001905Y-40762381D02*
X205201905Y-40762381D01*
X205201905Y-40457619D01*
X205240000Y-40381428D01*
X205278095Y-40343333D01*
X205354286Y-40305238D01*
X205468571Y-40305238D01*
X205544762Y-40343333D01*
X205582857Y-40381428D01*
X205620952Y-40457619D01*
X205620952Y-40762381D01*
X206001905Y-39543333D02*
X206001905Y-40000476D01*
X206001905Y-39771905D02*
X205201905Y-39771905D01*
X205316190Y-39848095D01*
X205392381Y-39924286D01*
X205430476Y-40000476D01*
X205201905Y-39048095D02*
X205201905Y-38971904D01*
X205240000Y-38895714D01*
X205278095Y-38857619D01*
X205354286Y-38819523D01*
X205506667Y-38781428D01*
X205697143Y-38781428D01*
X205849524Y-38819523D01*
X205925714Y-38857619D01*
X205963810Y-38895714D01*
X206001905Y-38971904D01*
X206001905Y-39048095D01*
X205963810Y-39124285D01*
X205925714Y-39162381D01*
X205849524Y-39200476D01*
X205697143Y-39238571D01*
X205506667Y-39238571D01*
X205354286Y-39200476D01*
X205278095Y-39162381D01*
X205240000Y-39124285D01*
X205201905Y-39048095D01*
X206001905Y-38400476D02*
X206001905Y-38248095D01*
X205963810Y-38171904D01*
X205925714Y-38133809D01*
X205811429Y-38057618D01*
X205659048Y-38019523D01*
X205354286Y-38019523D01*
X205278095Y-38057618D01*
X205240000Y-38095714D01*
X205201905Y-38171904D01*
X205201905Y-38324285D01*
X205240000Y-38400476D01*
X205278095Y-38438571D01*
X205354286Y-38476666D01*
X205544762Y-38476666D01*
X205620952Y-38438571D01*
X205659048Y-38400476D01*
X205697143Y-38324285D01*
X205697143Y-38171904D01*
X205659048Y-38095714D01*
X205620952Y-38057618D01*
X205544762Y-38019523D01*
X206871905Y-72865238D02*
X206490952Y-73131905D01*
X206871905Y-73322381D02*
X206071905Y-73322381D01*
X206071905Y-73017619D01*
X206110000Y-72941428D01*
X206148095Y-72903333D01*
X206224286Y-72865238D01*
X206338571Y-72865238D01*
X206414762Y-72903333D01*
X206452857Y-72941428D01*
X206490952Y-73017619D01*
X206490952Y-73322381D01*
X206871905Y-72103333D02*
X206871905Y-72560476D01*
X206871905Y-72331905D02*
X206071905Y-72331905D01*
X206186190Y-72408095D01*
X206262381Y-72484286D01*
X206300476Y-72560476D01*
X206871905Y-71341428D02*
X206871905Y-71798571D01*
X206871905Y-71570000D02*
X206071905Y-71570000D01*
X206186190Y-71646190D01*
X206262381Y-71722381D01*
X206300476Y-71798571D01*
X206071905Y-70846190D02*
X206071905Y-70769999D01*
X206110000Y-70693809D01*
X206148095Y-70655714D01*
X206224286Y-70617618D01*
X206376667Y-70579523D01*
X206567143Y-70579523D01*
X206719524Y-70617618D01*
X206795714Y-70655714D01*
X206833810Y-70693809D01*
X206871905Y-70769999D01*
X206871905Y-70846190D01*
X206833810Y-70922380D01*
X206795714Y-70960476D01*
X206719524Y-70998571D01*
X206567143Y-71036666D01*
X206376667Y-71036666D01*
X206224286Y-70998571D01*
X206148095Y-70960476D01*
X206110000Y-70922380D01*
X206071905Y-70846190D01*
X212541905Y-72885238D02*
X212160952Y-73151905D01*
X212541905Y-73342381D02*
X211741905Y-73342381D01*
X211741905Y-73037619D01*
X211780000Y-72961428D01*
X211818095Y-72923333D01*
X211894286Y-72885238D01*
X212008571Y-72885238D01*
X212084762Y-72923333D01*
X212122857Y-72961428D01*
X212160952Y-73037619D01*
X212160952Y-73342381D01*
X212541905Y-72123333D02*
X212541905Y-72580476D01*
X212541905Y-72351905D02*
X211741905Y-72351905D01*
X211856190Y-72428095D01*
X211932381Y-72504286D01*
X211970476Y-72580476D01*
X212541905Y-71361428D02*
X212541905Y-71818571D01*
X212541905Y-71590000D02*
X211741905Y-71590000D01*
X211856190Y-71666190D01*
X211932381Y-71742381D01*
X211970476Y-71818571D01*
X212541905Y-70599523D02*
X212541905Y-71056666D01*
X212541905Y-70828095D02*
X211741905Y-70828095D01*
X211856190Y-70904285D01*
X211932381Y-70980476D01*
X211970476Y-71056666D01*
X197654762Y-75661905D02*
X197388095Y-75280952D01*
X197197619Y-75661905D02*
X197197619Y-74861905D01*
X197502381Y-74861905D01*
X197578572Y-74900000D01*
X197616667Y-74938095D01*
X197654762Y-75014286D01*
X197654762Y-75128571D01*
X197616667Y-75204762D01*
X197578572Y-75242857D01*
X197502381Y-75280952D01*
X197197619Y-75280952D01*
X198416667Y-75661905D02*
X197959524Y-75661905D01*
X198188095Y-75661905D02*
X198188095Y-74861905D01*
X198111905Y-74976190D01*
X198035714Y-75052381D01*
X197959524Y-75090476D01*
X199178572Y-75661905D02*
X198721429Y-75661905D01*
X198950000Y-75661905D02*
X198950000Y-74861905D01*
X198873810Y-74976190D01*
X198797619Y-75052381D01*
X198721429Y-75090476D01*
X199483334Y-74938095D02*
X199521429Y-74900000D01*
X199597620Y-74861905D01*
X199788096Y-74861905D01*
X199864286Y-74900000D01*
X199902382Y-74938095D01*
X199940477Y-75014286D01*
X199940477Y-75090476D01*
X199902382Y-75204762D01*
X199445239Y-75661905D01*
X199940477Y-75661905D01*
X197529762Y-67111905D02*
X197263095Y-66730952D01*
X197072619Y-67111905D02*
X197072619Y-66311905D01*
X197377381Y-66311905D01*
X197453572Y-66350000D01*
X197491667Y-66388095D01*
X197529762Y-66464286D01*
X197529762Y-66578571D01*
X197491667Y-66654762D01*
X197453572Y-66692857D01*
X197377381Y-66730952D01*
X197072619Y-66730952D01*
X198291667Y-67111905D02*
X197834524Y-67111905D01*
X198063095Y-67111905D02*
X198063095Y-66311905D01*
X197986905Y-66426190D01*
X197910714Y-66502381D01*
X197834524Y-66540476D01*
X199053572Y-67111905D02*
X198596429Y-67111905D01*
X198825000Y-67111905D02*
X198825000Y-66311905D01*
X198748810Y-66426190D01*
X198672619Y-66502381D01*
X198596429Y-66540476D01*
X199320239Y-66311905D02*
X199815477Y-66311905D01*
X199548810Y-66616667D01*
X199663096Y-66616667D01*
X199739286Y-66654762D01*
X199777382Y-66692857D01*
X199815477Y-66769048D01*
X199815477Y-66959524D01*
X199777382Y-67035714D01*
X199739286Y-67073810D01*
X199663096Y-67111905D01*
X199434524Y-67111905D01*
X199358334Y-67073810D01*
X199320239Y-67035714D01*
X227404762Y-57061905D02*
X227138095Y-56680952D01*
X226947619Y-57061905D02*
X226947619Y-56261905D01*
X227252381Y-56261905D01*
X227328572Y-56300000D01*
X227366667Y-56338095D01*
X227404762Y-56414286D01*
X227404762Y-56528571D01*
X227366667Y-56604762D01*
X227328572Y-56642857D01*
X227252381Y-56680952D01*
X226947619Y-56680952D01*
X228166667Y-57061905D02*
X227709524Y-57061905D01*
X227938095Y-57061905D02*
X227938095Y-56261905D01*
X227861905Y-56376190D01*
X227785714Y-56452381D01*
X227709524Y-56490476D01*
X228928572Y-57061905D02*
X228471429Y-57061905D01*
X228700000Y-57061905D02*
X228700000Y-56261905D01*
X228623810Y-56376190D01*
X228547619Y-56452381D01*
X228471429Y-56490476D01*
X229614286Y-56528571D02*
X229614286Y-57061905D01*
X229423810Y-56223810D02*
X229233334Y-56795238D01*
X229728572Y-56795238D01*
X216711905Y-75345238D02*
X216330952Y-75611905D01*
X216711905Y-75802381D02*
X215911905Y-75802381D01*
X215911905Y-75497619D01*
X215950000Y-75421428D01*
X215988095Y-75383333D01*
X216064286Y-75345238D01*
X216178571Y-75345238D01*
X216254762Y-75383333D01*
X216292857Y-75421428D01*
X216330952Y-75497619D01*
X216330952Y-75802381D01*
X216711905Y-74583333D02*
X216711905Y-75040476D01*
X216711905Y-74811905D02*
X215911905Y-74811905D01*
X216026190Y-74888095D01*
X216102381Y-74964286D01*
X216140476Y-75040476D01*
X216711905Y-73821428D02*
X216711905Y-74278571D01*
X216711905Y-74050000D02*
X215911905Y-74050000D01*
X216026190Y-74126190D01*
X216102381Y-74202381D01*
X216140476Y-74278571D01*
X215911905Y-73097618D02*
X215911905Y-73478571D01*
X216292857Y-73516666D01*
X216254762Y-73478571D01*
X216216667Y-73402380D01*
X216216667Y-73211904D01*
X216254762Y-73135714D01*
X216292857Y-73097618D01*
X216369048Y-73059523D01*
X216559524Y-73059523D01*
X216635714Y-73097618D01*
X216673810Y-73135714D01*
X216711905Y-73211904D01*
X216711905Y-73402380D01*
X216673810Y-73478571D01*
X216635714Y-73516666D01*
X222963905Y-75420238D02*
X222582952Y-75686905D01*
X222963905Y-75877381D02*
X222163905Y-75877381D01*
X222163905Y-75572619D01*
X222202000Y-75496428D01*
X222240095Y-75458333D01*
X222316286Y-75420238D01*
X222430571Y-75420238D01*
X222506762Y-75458333D01*
X222544857Y-75496428D01*
X222582952Y-75572619D01*
X222582952Y-75877381D01*
X222963905Y-74658333D02*
X222963905Y-75115476D01*
X222963905Y-74886905D02*
X222163905Y-74886905D01*
X222278190Y-74963095D01*
X222354381Y-75039286D01*
X222392476Y-75115476D01*
X222963905Y-73896428D02*
X222963905Y-74353571D01*
X222963905Y-74125000D02*
X222163905Y-74125000D01*
X222278190Y-74201190D01*
X222354381Y-74277381D01*
X222392476Y-74353571D01*
X222163905Y-73210714D02*
X222163905Y-73363095D01*
X222202000Y-73439285D01*
X222240095Y-73477380D01*
X222354381Y-73553571D01*
X222506762Y-73591666D01*
X222811524Y-73591666D01*
X222887714Y-73553571D01*
X222925810Y-73515476D01*
X222963905Y-73439285D01*
X222963905Y-73286904D01*
X222925810Y-73210714D01*
X222887714Y-73172618D01*
X222811524Y-73134523D01*
X222621048Y-73134523D01*
X222544857Y-73172618D01*
X222506762Y-73210714D01*
X222468667Y-73286904D01*
X222468667Y-73439285D01*
X222506762Y-73515476D01*
X222544857Y-73553571D01*
X222621048Y-73591666D01*
X229504762Y-64461905D02*
X229238095Y-64080952D01*
X229047619Y-64461905D02*
X229047619Y-63661905D01*
X229352381Y-63661905D01*
X229428572Y-63700000D01*
X229466667Y-63738095D01*
X229504762Y-63814286D01*
X229504762Y-63928571D01*
X229466667Y-64004762D01*
X229428572Y-64042857D01*
X229352381Y-64080952D01*
X229047619Y-64080952D01*
X230266667Y-64461905D02*
X229809524Y-64461905D01*
X230038095Y-64461905D02*
X230038095Y-63661905D01*
X229961905Y-63776190D01*
X229885714Y-63852381D01*
X229809524Y-63890476D01*
X231028572Y-64461905D02*
X230571429Y-64461905D01*
X230800000Y-64461905D02*
X230800000Y-63661905D01*
X230723810Y-63776190D01*
X230647619Y-63852381D01*
X230571429Y-63890476D01*
X231295239Y-63661905D02*
X231828572Y-63661905D01*
X231485715Y-64461905D01*
M02*
